<svg xmlns="http://www.w3.org/2000/svg" id="a1446b94-79a8-45dc-beee-b314ae1acdc1" width="505.466" height="596.945" data-name="Layer 1" viewBox="0 0 505.466 596.945"><path fill="#9f616a" d="M706.73312,652.47268l5,96S500.239,547.178,473.89063,488.28153,497.13921,283.694,497.13921,283.694l110.04332,60.44633Z" transform="translate(-347.26688 -151.52732)"/><path fill="#9f616a" d="M382.44618,243.39641l-32.548,3.09981s-17.049,37.19774,35.64783,40.29756Z" transform="translate(-347.26688 -151.52732)"/><path fill="#9f616a" d="M382.44618,300.74293l-32.548,3.09981s-17.049,37.19774,35.64783,40.29755Z" transform="translate(-347.26688 -151.52732)"/><path fill="#9f616a" d="M382.44618,362.73916l-32.548,3.09981s-17.049,37.19774,35.64783,40.29756Z" transform="translate(-347.26688 -151.52732)"/><path fill="#9f616a" d="M391.74562,424.7354l-32.548,3.09981s-17.049,37.19774,35.64784,40.29755Z" transform="translate(-347.26688 -151.52732)"/><path fill="#3f3d56" d="M366.60044,258.3401h2.46966V190.68455a39.15718,39.15718,0,0,1,39.15715-39.15723H551.56477a39.15718,39.15718,0,0,1,39.15726,39.1571V561.84816a39.15719,39.15719,0,0,1-39.15715,39.15723H408.22744a39.1572,39.1572,0,0,1-39.15731-39.15708V306.49848h-2.46969Z" transform="translate(-347.26688 -151.52732)"/><path fill="#fff" d="M406.64739,161.71467h18.71028a13.8929,13.8929,0,0,0,12.86292,19.13985h82.1162a13.89286,13.89286,0,0,0,12.86291-19.13987h17.47545a29.24215,29.24215,0,0,1,29.24218,29.24211V561.57589a29.24216,29.24216,0,0,1-29.24214,29.24218H406.64739a29.24216,29.24216,0,0,1-29.24218-29.24214h0V190.95679A29.24214,29.24214,0,0,1,406.64739,161.71467Z" transform="translate(-347.26688 -151.52732)"/><rect width="61.715" height="14.892" x="100.537" y="114.016" fill="#428cff" style="isolation:isolate"/><rect width="67.592" height="14.892" x="97.599" y="178.009" fill="#e5e5e5"/><rect width="150.858" height="14.892" x="55.965" y="210" fill="#e5e5e5"/><rect width="150.858" height="14.892" x="55.965" y="241.99" fill="#e5e5e5"/><path fill="#9f616a" d="M852.73312,702.47268l-173.48-197.91713-6.19962-127.09228-65.096-108.49341-18.59887-46.49718s-43.39736,4.64972-7.74953,92.99435l14.72411,47.27213,0,0a216.67408,216.67408,0,0,0-20.14876,91.24394v108.3237c0,25.50678,121.55,164.44287,135.69866,185.6658l0,0Z" transform="translate(-347.26688 -151.52732)"/><polygon points="247.195 126.636 260.136 120.276 259.695 119.378 247.738 125.255 229.688 77.932 228.754 78.289 247.195 126.636" opacity=".2"/><rect width="1" height="20.43" x="358.984" y="239.811" opacity=".2" transform="translate(-346.65612 349.39987) rotate(-69.7779)"/><rect width="1" height="20.43" x="358.984" y="297.811" opacity=".2" transform="translate(-401.08099 387.35158) rotate(-69.7779)"/><rect width="1" height="20.43" x="358.984" y="359.811" opacity=".2" transform="translate(-459.25929 427.92066) rotate(-69.7779)"/><rect width="1" height="10.353" x="364.066" y="425.558" opacity=".2" transform="translate(-528.7721 421.49849) rotate(-64.36101)"/><circle cx="131.471" cy="342.175" r="43.23" fill="#428cff"/><polygon fill="#fff" points="127.351 360.424 114.413 343.787 121.937 337.935 128.063 345.812 148.76 323.964 155.681 330.521 127.351 360.424"/></svg>