<svg xmlns="http://www.w3.org/2000/svg" xmlns:xlink="http://www.w3.org/1999/xlink" viewBox="0 0 400 300" width="406" height="306" class="illustration"><defs><linearGradient id="linear-gradient" x1="3832.2" y1="196.59" x2="3827.28" y2="201.27" gradientTransform="matrix(-1, 0, 0, 1, 4003.38, 0)" gradientUnits="userSpaceOnUse"><stop offset="0" stop-color="#7f4e00"></stop><stop offset="1" stop-color="#fff"></stop></linearGradient><linearGradient id="linear-gradient-2" x1="3806.54" y1="246.91" x2="3800.78" y2="252.38" xlink:href="#linear-gradient"></linearGradient><linearGradient id="linear-gradient-3" x1="3769.92" y1="106.26" x2="3763.39" y2="112.47" xlink:href="#linear-gradient"></linearGradient><linearGradient id="linear-gradient-4" x1="3699.5" y1="154.84" x2="3693.74" y2="160.31" xlink:href="#linear-gradient"></linearGradient><linearGradient id="linear-gradient-5" x1="3666.46" y1="175.32" x2="3660.71" y2="180.8" xlink:href="#linear-gradient"></linearGradient><linearGradient id="linear-gradient-6" x1="3696.2" y1="188.29" x2="3690.44" y2="193.77" xlink:href="#linear-gradient"></linearGradient><linearGradient id="linear-gradient-7" x1="3767.96" y1="230.84" x2="3762.21" y2="236.31" xlink:href="#linear-gradient"></linearGradient><linearGradient id="linear-gradient-8" x1="3785.35" y1="239.61" x2="3779.59" y2="245.09" xlink:href="#linear-gradient"></linearGradient><linearGradient id="linear-gradient-9" x1="3971.78" y1="176.2" x2="3966.03" y2="181.68" xlink:href="#linear-gradient"></linearGradient><linearGradient id="linear-gradient-10" x1="3779.8" y1="203.44" x2="3773.27" y2="209.64" xlink:href="#linear-gradient"></linearGradient><linearGradient id="linear-gradient-11" x1="231.68" y1="225.28" x2="254" y2="209.33" gradientUnits="userSpaceOnUse"><stop offset="0" stop-color="#fff" stop-opacity="0"></stop><stop offset="1" stop-color="#006b46"></stop></linearGradient><linearGradient id="linear-gradient-12" x1="174.85" y1="270.98" x2="181.03" y2="263.05" xlink:href="#linear-gradient-11"></linearGradient><linearGradient id="linear-gradient-13" x1="142.96" y1="252.48" x2="149.46" y2="246.77" xlink:href="#linear-gradient-11"></linearGradient><linearGradient id="linear-gradient-14" x1="3729.23" y1="167.81" x2="3723.48" y2="173.28" xlink:href="#linear-gradient"></linearGradient><linearGradient id="linear-gradient-15" x1="3741.49" y1="177.49" x2="3734.96" y2="183.7" xlink:href="#linear-gradient"></linearGradient><linearGradient id="linear-gradient-16" x1="50.19" y1="193.21" x2="57.43" y2="183.93" xlink:href="#linear-gradient-11"></linearGradient><linearGradient id="linear-gradient-17" x1="3949.56" y1="188.12" x2="3943.8" y2="193.59" xlink:href="#linear-gradient"></linearGradient><linearGradient id="linear-gradient-18" x1="103.39" y1="162.88" x2="110.62" y2="153.61" xlink:href="#linear-gradient-11"></linearGradient><linearGradient id="linear-gradient-19" x1="148.5" y1="139.78" x2="158.32" y2="127.19" xlink:href="#linear-gradient-11"></linearGradient><linearGradient id="linear-gradient-20" x1="3856.3" y1="139.8" x2="3850.55" y2="145.27" xlink:href="#linear-gradient"></linearGradient><linearGradient id="linear-gradient-21" x1="3907.91" y1="167.86" x2="3901.39" y2="174.07" xlink:href="#linear-gradient"></linearGradient></defs><title>PP</title><g style="isolation: isolate;"><g id="Layer_5" data-name="Layer 5"><path d="M170.28,199l1.61-1.52,7.47,3.53c-.77.39-1.88,1.07-3,1.69A54.48,54.48,0,0,1,170.28,199Z" opacity="0.68" fill="url(#linear-gradient)" style="mix-blend-mode: multiply;"></path><rect x="171.42" y="183.71" width="0.61" height="14.71" transform="translate(343.45 382.12) rotate(-180)" fill="#404048"></rect><circle cx="171.77" cy="183.35" r="1.82" fill="#68e1fd"></circle><circle cx="172.6" cy="182.65" r="0.38" fill="#fff"></circle><path d="M170.39,182.16a1.81,1.81,0,0,0,.92,2.26,1.7,1.7,0,0,0,2.16-.41,1.82,1.82,0,1,1-3.08-1.85Z" fill="#3e3e4a" opacity="0.4"></path><path d="M171,194.66l-.66,4a3.57,3.57,0,0,0,1.63.3c1.24,0,1.17-.38,1.17-.38l-.66-3.92Z" fill="#3e3e4a"></path><ellipse cx="171.72" cy="194.66" rx="0.74" ry="0.37" fill="#55555f"></ellipse><ellipse cx="171.73" cy="198.69" rx="1.41" ry="0.71" fill="#3e3e4a"></ellipse><path d="M195.8,249.79l1.88-1.77,8.73,4.12c-.9.46-2.2,1.25-3.46,2A63.72,63.72,0,0,1,195.8,249.79Z" opacity="0.68" fill="url(#linear-gradient-2)" style="mix-blend-mode: multiply;"></path><rect x="195.69" y="234.77" width="2.26" height="14.98" rx="1.13" ry="1.13" transform="translate(393.65 484.52) rotate(180)" fill="#bc532a"></rect><path d="M191.24,237.83c.52-2.26,2.84-12.22,6.94-9.3,2.1,1.5,2.7,3.85,3.54,6.14a18.28,18.28,0,0,1,1.31,5.94c.07,4.15-4.15,4.65-7.38,4.64-1.86,0-4.51-1.11-4.95-3.13a9.68,9.68,0,0,1,.44-3.85Z" fill="#2c9135"></path><path d="M191,238.27l.1-.44c.46-2,2.32-10,5.59-9.82-1,4.23-2.4,8.7-1.64,13a9.9,9.9,0,0,0,1.73,4.19c-.43,0-.86,0-1.27,0-1.86,0-4.51-1.11-4.95-3.13A9.68,9.68,0,0,1,191,238.27Z" fill="#156819"></path><path d="M191.11,280.74,18.61,178.79c-5.49-3.08-10.2-8.15-4.85-11.46L186.89,67.55c2.6-1.61,6.54-2.66,9.18-1.13L377.15,171.51c5.49,3.19,6.48,12.1,1,15.29L213.85,280.58A22.94,22.94,0,0,1,191.11,280.74Z" fill="#16a79e"></path><polygon points="264.82 106.32 78.33 214.81 129.49 244.32 316.75 136.15 264.82 106.32" fill="#89c3ef"></polygon><polygon points="271.89 162.05 346.89 204.63 363.31 195.25 289.94 151.88 271.89 162.05" fill="#ffdaae"></polygon><path d="M232.27,109.52l2.13-2,9.9,4.68c-1,.52-2.49,1.41-3.92,2.25A72.26,72.26,0,0,1,232.27,109.52Z" opacity="0.68" fill="url(#linear-gradient-3)" style="mix-blend-mode: multiply;"></path><rect x="233.78" y="89.17" width="0.81" height="19.51" transform="translate(468.37 197.85) rotate(-180)" fill="#404048"></rect><circle cx="234.25" cy="88.7" r="2.42" fill="#68e1fd"></circle><circle cx="235.34" cy="87.77" r="0.5" fill="#fff"></circle><path d="M232.41,87.12a2.4,2.4,0,0,0,1.22,3,2.26,2.26,0,0,0,2.87-.55,2.42,2.42,0,1,1-4.09-2.45Z" fill="#3e3e4a" opacity="0.4"></path><path d="M233.2,103.7l-.88,5.31a4.73,4.73,0,0,0,2.16.4c1.65.06,1.56-.5,1.56-.5l-.87-5.21Z" fill="#3e3e4a"></path><ellipse cx="234.18" cy="103.7" rx="0.98" ry="0.49" fill="#55555f"></ellipse><ellipse cx="234.18" cy="109.05" rx="1.87" ry="0.94" fill="#3e3e4a"></ellipse><path d="M302.83,157.71l1.88-1.77,8.73,4.12c-.9.46-2.2,1.25-3.46,2A63.72,63.72,0,0,1,302.83,157.71Z" opacity="0.68" fill="url(#linear-gradient-4)" style="mix-blend-mode: multiply;"></path><rect x="302.73" y="142.7" width="2.26" height="14.98" rx="1.13" ry="1.13" transform="translate(607.72 300.38) rotate(-180)" fill="#bc532a"></rect><path d="M298.28,145.76c.52-2.26,2.84-12.22,6.94-9.3,2.1,1.5,2.7,3.85,3.54,6.14a18.28,18.28,0,0,1,1.31,5.94c.07,4.15-4.15,4.65-7.38,4.64-1.86,0-4.51-1.11-4.95-3.13a9.68,9.68,0,0,1,.44-3.85Z" fill="#2c9135"></path><path d="M298.09,146.2l.1-.44c.46-2,2.32-10,5.59-9.82-1,4.23-2.4,8.7-1.64,13a9.9,9.9,0,0,0,1.73,4.19c-.43,0-.86,0-1.27,0-1.86,0-4.51-1.11-4.95-3.13A9.68,9.68,0,0,1,298.09,146.2Z" fill="#156819"></path><path d="M250.37,202.48s-11.81,8.1-5.67,14.18c8.44,8.36,43.64-12.58,44.48-19,.74-5.62-11.21-5.62-11.21-5.62" fill="#118e82"></path><polygon points="181.69 275.17 369.52 167.08 377.14 171.51 191.11 280.74 181.69 275.17" fill="#ffdaae"></polygon><polygon points="172.7 141.82 126.67 115.43 119.17 121.79 161.44 145.82 172.7 141.82" fill="#ffdaae"></polygon><polygon points="123.74 169.98 60.62 135.18 53.9 140.27 112.47 173.97 123.74 169.98" fill="#ffdaae"></polygon><path d="M222.27,81.62c-3.24-1.85-6.33-3.72-9.59-5.55-4.76,7.58-10.72,22.35,3,37.73l10.52-4.46S212.19,94.22,222.27,81.62Z" fill="#ffdaae"></path><path d="M78.33,214.81l5.8,3.45L231.3,133.33s-3.22-3.74-9.19-2.23Z" fill="#603232"></path><polyline points="243.43 118.3 264.82 106.32 269.81 109.19 240.59 125.13" fill="#603232"></polyline><path d="M222.11,131.1,78.33,214.81,59,202.66,207.66,115.3s11.26-7.63,18.59-5.95S246,119.12,246,119.12Z" fill="#ffdaae"></path><path d="M335.87,178.2l1.88-1.77,8.73,4.12c-.9.46-2.2,1.25-3.46,2A63.72,63.72,0,0,1,335.87,178.2Z" opacity="0.68" fill="url(#linear-gradient-5)" style="mix-blend-mode: multiply;"></path><rect x="335.77" y="163.18" width="2.26" height="14.98" rx="1.13" ry="1.13" transform="translate(673.8 341.35) rotate(180)" fill="#bc532a"></rect><path d="M331.32,166.25c.52-2.26,2.84-12.22,6.94-9.3,2.1,1.5,2.7,3.85,3.54,6.14A18.28,18.28,0,0,1,343.1,169c.07,4.15-4.15,4.65-7.38,4.64-1.86,0-4.51-1.11-4.95-3.13a9.68,9.68,0,0,1,.44-3.85Z" fill="#2c9135"></path><path d="M331.12,166.69l.1-.44c.46-2,2.32-10,5.59-9.82-1,4.23-2.4,8.7-1.64,13a9.9,9.9,0,0,0,1.73,4.19c-.43,0-.86,0-1.27,0-1.86,0-4.51-1.11-4.95-3.13A9.68,9.68,0,0,1,331.12,166.69Z" fill="#156819"></path><path d="M306.14,191.17,308,189.4l8.73,4.12c-.9.46-2.2,1.25-3.46,2A63.72,63.72,0,0,1,306.14,191.17Z" opacity="0.68" fill="url(#linear-gradient-6)" style="mix-blend-mode: multiply;"></path><rect x="306.03" y="176.15" width="2.26" height="14.98" rx="1.13" ry="1.13" transform="translate(614.33 367.29) rotate(-180)" fill="#bc532a"></rect><path d="M301.58,179.22c.52-2.26,2.84-12.22,6.94-9.3,2.1,1.5,2.7,3.85,3.54,6.14a18.28,18.28,0,0,1,1.31,5.94c.07,4.15-4.15,4.65-7.38,4.64-1.86,0-4.51-1.11-4.95-3.13a9.68,9.68,0,0,1,.44-3.85Z" fill="#2c9135"></path><path d="M301.39,179.66l.1-.44c.46-2,2.32-10,5.59-9.82-1,4.23-2.4,8.7-1.64,13a9.9,9.9,0,0,0,1.73,4.19c-.43,0-.86,0-1.27,0-1.86,0-4.51-1.11-4.95-3.13A9.68,9.68,0,0,1,301.39,179.66Z" fill="#156819"></path><path d="M234.37,233.71l1.88-1.77,8.73,4.12c-.9.46-2.2,1.25-3.46,2A63.72,63.72,0,0,1,234.37,233.71Z" opacity="0.68" fill="url(#linear-gradient-7)" style="mix-blend-mode: multiply;"></path><rect x="234.27" y="218.7" width="2.26" height="14.98" rx="1.13" ry="1.13" transform="translate(470.8 452.38) rotate(180)" fill="#bc532a"></rect><path d="M229.82,221.76c.52-2.26,2.84-12.22,6.94-9.3,2.1,1.5,2.7,3.85,3.54,6.14a18.28,18.28,0,0,1,1.31,5.94c.07,4.15-4.15,4.65-7.38,4.64-1.86,0-4.51-1.11-4.95-3.13a9.68,9.68,0,0,1,.44-3.85Z" fill="#2c9135"></path><path d="M229.62,222.2l.1-.44c.46-2,2.32-10,5.59-9.82-1,4.23-2.4,8.7-1.64,13a9.9,9.9,0,0,0,1.73,4.19c-.43,0-.86,0-1.27,0-1.86,0-4.51-1.11-4.95-3.13A9.68,9.68,0,0,1,229.62,222.2Z" fill="#156819"></path><path d="M217,242.49l1.88-1.77,8.73,4.12c-.9.46-2.2,1.25-3.46,2A63.72,63.72,0,0,1,217,242.49Z" opacity="0.68" fill="url(#linear-gradient-8)" style="mix-blend-mode: multiply;"></path><rect x="216.89" y="227.48" width="2.26" height="14.98" rx="1.13" ry="1.13" transform="translate(436.03 469.93) rotate(-180)" fill="#bc532a"></rect><path d="M212.44,230.54c.52-2.26,2.84-12.22,6.94-9.3,2.1,1.5,2.7,3.85,3.54,6.14a18.28,18.28,0,0,1,1.31,5.94c.07,4.15-4.15,4.65-7.38,4.64-1.86,0-4.51-1.11-4.95-3.13a9.68,9.68,0,0,1,.44-3.85Z" fill="#2c9135"></path><path d="M212.24,231l.1-.44c.46-2,2.32-10,5.59-9.82-1,4.23-2.4,8.7-1.64,13a9.9,9.9,0,0,0,1.73,4.19c-.43,0-.86,0-1.27,0-1.86,0-4.51-1.11-4.95-3.13A9.68,9.68,0,0,1,212.24,231Z" fill="#156819"></path><path d="M30.55,179.08l1.88-1.77,8.73,4.12c-.9.46-2.2,1.25-3.46,2A63.72,63.72,0,0,1,30.55,179.08Z" opacity="0.68" fill="url(#linear-gradient-9)" style="mix-blend-mode: multiply;"></path><rect x="30.45" y="164.07" width="2.26" height="14.98" rx="1.13" ry="1.13" transform="translate(63.16 343.11) rotate(180)" fill="#bc532a"></rect><path d="M26,167.13c.52-2.26,2.84-12.22,6.94-9.3,2.1,1.5,2.7,3.85,3.54,6.14a18.28,18.28,0,0,1,1.31,5.94c.07,4.15-4.15,4.65-7.38,4.64-1.86,0-4.51-1.11-4.95-3.13a9.68,9.68,0,0,1,.44-3.85Z" fill="#2c9135"></path><path d="M25.8,167.57l.1-.44c.46-2,2.32-10,5.59-9.82-1,4.23-2.4,8.7-1.64,13a9.9,9.9,0,0,0,1.73,4.19c-.43,0-.86,0-1.27,0-1.86,0-4.51-1.11-4.95-3.13A9.68,9.68,0,0,1,25.8,167.57Z" fill="#156819"></path><path d="M222.39,206.7l2.13-2,9.9,4.68c-1,.52-2.49,1.41-3.92,2.25A72.26,72.26,0,0,1,222.39,206.7Z" opacity="0.68" fill="url(#linear-gradient-10)" style="mix-blend-mode: multiply;"></path><rect x="223.9" y="186.35" width="0.81" height="19.51" transform="translate(448.61 392.2) rotate(-180)" fill="#404048"></rect><circle cx="224.37" cy="185.87" r="2.42" fill="#68e1fd"></circle><circle cx="225.46" cy="184.95" r="0.5" fill="#fff"></circle><path d="M222.53,184.3a2.4,2.4,0,0,0,1.22,3,2.26,2.26,0,0,0,2.87-.55,2.42,2.42,0,1,1-4.09-2.45Z" fill="#3e3e4a" opacity="0.4"></path><path d="M223.32,200.88l-.88,5.31a4.73,4.73,0,0,0,2.16.4c1.65.06,1.56-.5,1.56-.5l-.87-5.21Z" fill="#3e3e4a"></path><ellipse cx="224.31" cy="200.88" rx="0.98" ry="0.49" fill="#55555f"></ellipse><ellipse cx="224.31" cy="206.22" rx="1.87" ry="0.94" fill="#3e3e4a"></ellipse><path d="M220.57,218.91c1.37-.23,15.24-.09,15.77.53-1,9.46-.43,11.25,2.55,13.63.83-.35,8-7.12,8.85-7.48,11.46-6.9,34.78-20,38.22-27-1.8-1.3-26.27,1.74-28,.38Z" opacity="0.41" fill="url(#linear-gradient-11)" style="mix-blend-mode: multiply;"></path><path d="M179,274.46c6.91-4.42,13-9,26.38-17.3a50.7,50.7,0,0,1-7-5.52c-7.15.46-15,1-15.92.29l-21.3,11.38C167.24,266.72,173.16,270.5,179,274.46Z" opacity="0.41" fill="url(#linear-gradient-12)" style="mix-blend-mode: multiply;"></path><polygon points="205.34 257.76 205.34 190.36 190.64 198.57 190.64 266.24 205.34 257.76" fill="#68e1fd"></polygon><polygon points="205.34 257.76 205.34 190.36 190.64 198.57 190.64 266.24 205.34 257.76" fill="#1e4549" opacity="0.33"></polygon><polygon points="190.64 198.57 175.71 190.36 175.71 257.47 190.64 266.24 190.64 198.57" fill="#68e1fd"></polygon><polygon points="205.34 190.36 190.64 181.34 175.71 190.36 190.64 198.57 205.34 190.36" fill="#9d9ca1"></polygon><polyline points="201.81 187.04 201.81 189.57 190.08 196.35 178.35 189.57 178.35 187.04" fill="#cc9825"></polyline><polygon points="201.81 187.07 190.17 179.93 178.35 187.07 190.17 193.57 201.81 187.07" fill="#f9e1aa"></polygon><polygon points="175.71 195.11 190.76 202.89 205.34 195.25 205.34 196.42 190.77 204.07 175.71 196.28 175.71 195.11" fill="#ccc"></polygon><polygon points="175.71 200 190.76 207.78 205.34 200.13 205.34 201.31 190.77 208.96 175.71 201.17 175.71 200" fill="#ccc"></polygon><polygon points="175.71 205.32 190.82 213.13 205.34 205.52 205.34 206.69 190.83 214.31 175.71 206.49 175.71 205.32" fill="#ccc"></polygon><polygon points="175.71 210.14 190.94 218.02 205.34 210.46 205.34 211.64 190.95 219.2 175.71 211.32 175.71 210.14" fill="#ccc"></polygon><polygon points="175.71 214.84 190.71 222.6 205.34 214.92 205.34 216.09 190.71 223.77 175.71 216.02 175.71 214.84" fill="#ccc"></polygon><polygon points="175.71 219.67 190.82 227.48 205.34 219.86 205.34 221.04 190.83 228.66 175.71 220.84 175.71 219.67" fill="#ccc"></polygon><polygon points="175.71 224.44 190.65 232.16 205.34 224.45 205.34 225.63 190.65 233.34 175.71 225.61 175.71 224.44" fill="#ccc"></polygon><polygon points="175.71 229.42 190.76 237.21 205.34 229.55 205.34 230.73 190.77 238.38 175.71 230.59 175.71 229.42" fill="#ccc"></polygon><polygon points="175.71 234.4 190.88 242.24 205.34 234.66 205.34 235.84 190.89 243.42 175.71 235.57 175.71 234.4" fill="#ccc"></polygon><polygon points="175.71 239.22 191 247.13 205.34 239.6 205.34 240.78 191.01 248.31 175.71 240.4 175.71 239.22" fill="#ccc"></polygon><polygon points="175.71 244.56 190.65 252.28 205.34 244.57 205.34 245.75 190.65 253.46 175.71 245.74 175.71 244.56" fill="#ccc"></polygon><polygon points="175.71 249.39 190.76 257.17 205.34 249.52 205.34 250.7 190.77 258.35 175.71 250.56 175.71 249.39" fill="#ccc"></polygon><polygon points="175.71 254.08 190.82 261.89 205.34 254.27 205.34 255.45 190.83 263.07 175.71 255.25 175.71 254.08" fill="#ccc"></polygon><path d="M149.58,257.18c8.72-5.18,19.65-11.8,26.13-17.26a50.7,50.7,0,0,1-7-5.52c-7.15.46-15,1-15.92.29l-20.49,10.95C137.38,250.38,143.42,253.91,149.58,257.18Z" opacity="0.41" fill="url(#linear-gradient-13)" style="mix-blend-mode: multiply;"></path><polygon points="175.56 241.63 175.56 174.22 160.87 182.43 160.87 250.1 175.56 241.63" fill="#68e1fd"></polygon><polygon points="175.56 241.63 175.56 174.22 160.87 182.43 160.87 250.1 175.56 241.63" fill="#1e4549" opacity="0.33"></polygon><polygon points="160.87 182.43 145.94 174.22 145.94 241.34 160.87 250.1 160.87 182.43" fill="#68e1fd"></polygon><polygon points="175.56 174.22 160.87 165.2 145.94 174.22 160.87 182.43 175.56 174.22" fill="#9d9ca1"></polygon><polyline points="172.04 170.91 172.04 173.44 160.31 180.21 148.58 173.44 148.58 170.91" fill="#cc9825"></polyline><polygon points="172.04 170.93 160.4 163.79 148.58 170.93 160.4 177.43 172.04 170.93" fill="#f9e1aa"></polygon><polygon points="145.94 178.97 160.99 186.76 175.56 179.11 175.56 180.28 161 187.93 145.94 180.15 145.94 178.97" fill="#ccc"></polygon><polygon points="145.94 183.86 160.99 191.64 175.56 183.99 175.56 185.17 161 192.82 145.94 185.03 145.94 183.86" fill="#ccc"></polygon><polygon points="145.94 189.18 161.05 197 175.56 189.38 175.56 190.56 161.06 198.17 145.94 190.36 145.94 189.18" fill="#ccc"></polygon><polygon points="145.94 194 161.17 201.88 175.56 194.32 175.56 195.5 161.18 203.06 145.94 195.18 145.94 194" fill="#ccc"></polygon><polygon points="145.94 198.71 160.93 206.46 175.56 198.78 175.56 199.96 160.94 207.64 145.94 199.88 145.94 198.71" fill="#ccc"></polygon><polygon points="145.94 203.53 161.05 211.34 175.56 203.72 175.56 204.9 161.06 212.52 145.94 204.7 145.94 203.53" fill="#ccc"></polygon><polygon points="145.94 208.3 160.88 216.02 175.56 208.31 175.56 209.49 160.88 217.2 145.94 209.47 145.94 208.3" fill="#ccc"></polygon><polygon points="145.94 213.28 160.99 221.07 175.56 213.42 175.56 214.59 161 222.24 145.94 214.46 145.94 213.28" fill="#ccc"></polygon><polygon points="145.94 218.26 161.11 226.11 175.56 218.52 175.56 219.7 161.12 227.28 145.94 219.43 145.94 218.26" fill="#ccc"></polygon><polygon points="145.94 223.08 161.23 230.99 175.56 223.47 175.56 224.64 161.24 232.17 145.94 224.26 145.94 223.08" fill="#ccc"></polygon><polygon points="145.94 228.42 160.88 236.15 175.56 228.43 175.56 229.61 160.88 237.32 145.94 229.6 145.94 228.42" fill="#ccc"></polygon><polygon points="145.94 233.25 160.99 241.03 175.56 233.38 175.56 234.56 161 242.21 145.94 234.42 145.94 233.25" fill="#ccc"></polygon><polygon points="145.94 237.94 161.05 245.75 175.56 238.13 175.56 239.31 161.06 246.93 145.94 239.11 145.94 237.94" fill="#ccc"></polygon><path d="M203,169.83c-.25.12-5.21,4.8-7.07,8,0,0,8.1,2.47,15.76-.36s26.11-14.08,26.58-14.27,2.24-4.73,2.24-4.73" fill="#589cc6"></path><path d="M240.54,151.63c.17.26,0,6.81,0,6.81s-9.78,7.23-15,10.3-13,6.21-25,7.23v-5.87s5.53-7.32,11.4-11.57c0,0-.77-1.62.6-2.38s12.85-7.57,12.85-7.57l8.16-4.34,6.59,3.74a2,2,0,0,1,.87,2.46Z" fill="#fff"></path><path d="M200.55,172.51s12.58-.66,19.81-4.71,20.24-12.38,20.24-12.38l-.06,3-12.64,8.84s-9.47,7.43-27.35,8.69Z" fill="#6a4e39"></path><polygon points="211.95 158.52 211.95 163.83 220.36 167.79 240.59 155.41 241.01 150.42 221.77 162.82 211.95 158.52" fill="#ccccce"></polygon><polygon points="224.79 161.78 224.79 164.26 226.6 163.22 226.6 160.55 224.79 161.78" fill="#6a4e39"></polygon><polygon points="227.28 160.35 227.28 162.82 229.1 161.78 229.1 159.11 227.28 160.35" fill="#6a4e39"></polygon><polygon points="231.3 157.62 231.3 160.09 233.11 159.05 233.11 156.38 231.3 157.62" fill="#6a4e39"></polygon><polygon points="233.62 156.18 233.62 158.66 235.43 157.61 235.43 154.94 233.62 156.18" fill="#6a4e39"></polygon><path d="M200.55,170.09s13.76-.74,21-2.95h0s-8.15,5.13-21,5.36Z" fill="#a57b5e"></path><polygon points="225.46 136.63 265.1 159.93 267.92 165.04 281.95 156.38 235.94 128.61 225.46 136.63" fill="#589cc6"></polygon><path d="M286.16,143.67,246,119.12v-3.65l7.78-5.49,25.74,15.82,6.66,14.09ZM247,118.56l38.18,23.33V140l-6.44-13.51L253.8,111.17,247,116Z" fill="#af3e1c"></path><path d="M278.22,138.39l.08,0c.11.11.24.2.36.3h.56V126.34a6.83,6.83,0,0,1-.91-.62l-6.08,7.72-5.12-14.61-1.07-.44-6.54,7.31-5.21-15.17h-.07l0,0a2.1,2.1,0,0,1-.93.32V123.3h1v-9.73l4.55,13.26.81.22,6.68-7.47L271.38,134a.71.71,0,0,1,.12.05l1,.68,5.76-7.32Z" fill="#af3e1c"></path><rect x="265.57" y="104.78" width="1" height="46.03" transform="translate(17.66 287.23) rotate(-58.35)" fill="#af3e1c"></rect><rect x="259.57" y="114.44" width="1" height="12.7" fill="#af3e1c"></rect><rect x="271.89" y="122.26" width="1" height="12.7" fill="#af3e1c"></rect><rect x="265.57" y="118.3" width="1" height="12.7" fill="#af3e1c"></rect><polygon points="271.89 162.05 267.82 155.65 227.64 131.1 222.11 131.1 242.9 119.6 245.98 119.12 286.16 143.67 289.94 151.88 271.89 162.05" fill="#ffdaae"></polygon><path d="M267.83,155.65,227.64,131.1v-3.65l7.78-5.49,25.74,15.82,6.66,14.09Zm-39.18-25.11,38.18,23.33V152l-6.44-13.51-24.93-15.32L228.64,128Z" fill="#af3e1c"></path><path d="M259.88,150.37l.08,0c.11.11.24.2.36.3h.56V138.32a6.83,6.83,0,0,1-.91-.62l-6.08,7.72-5.12-14.61-1.07-.44-6.54,7.31L236,122.51h-.07l0,0a2.1,2.1,0,0,1-.93.32v12.41h1v-9.73l4.55,13.26.81.22,6.68-7.47L253,146a.71.71,0,0,1,.12.05l1,.68,5.76-7.32Z" fill="#af3e1c"></path><rect x="247.23" y="116.76" width="1" height="46.03" transform="translate(-1.25 277.32) rotate(-58.35)" fill="#af3e1c"></rect><rect x="241.24" y="126.42" width="1" height="12.7" fill="#af3e1c"></rect><rect x="253.56" y="134.24" width="1" height="12.7" fill="#af3e1c"></rect><rect x="247.23" y="130.28" width="1" height="12.7" fill="#af3e1c"></rect><path d="M273.1,170.68l1.88-1.77,8.73,4.12c-.9.46-2.2,1.25-3.46,2A63.72,63.72,0,0,1,273.1,170.68Z" opacity="0.68" fill="url(#linear-gradient-14)" style="mix-blend-mode: multiply;"></path><rect x="273" y="155.67" width="2.26" height="14.98" rx="1.13" ry="1.13" transform="translate(548.25 326.32) rotate(180)" fill="#bc532a"></rect><path d="M268.55,158.73c.52-2.26,2.84-12.22,6.94-9.3,2.1,1.5,2.7,3.85,3.54,6.14a18.28,18.28,0,0,1,1.31,5.94c.07,4.15-4.15,4.65-7.38,4.64-1.86,0-4.51-1.11-4.95-3.13a9.68,9.68,0,0,1,.44-3.85Z" fill="#2c9135"></path><path d="M268.35,159.17l.1-.44c.46-2,2.32-10,5.59-9.82-1,4.23-2.4,8.7-1.64,13a9.9,9.9,0,0,0,1.73,4.19c-.43,0-.86,0-1.27,0-1.86,0-4.51-1.11-4.95-3.13A9.68,9.68,0,0,1,268.35,159.17Z" fill="#156819"></path><path d="M260.7,180.75l2.13-2,9.9,4.68c-1,.52-2.49,1.41-3.92,2.25A72.26,72.26,0,0,1,260.7,180.75Z" opacity="0.68" fill="url(#linear-gradient-15)" style="mix-blend-mode: multiply;"></path><rect x="262.21" y="160.4" width="0.81" height="19.51" transform="translate(525.23 340.31) rotate(-180)" fill="#404048"></rect><circle cx="262.68" cy="159.93" r="2.42" fill="#68e1fd"></circle><circle cx="263.77" cy="159" r="0.5" fill="#fff"></circle><path d="M260.84,158.35a2.4,2.4,0,0,0,1.22,3,2.26,2.26,0,0,0,2.87-.55,2.42,2.42,0,1,1-4.09-2.45Z" fill="#3e3e4a" opacity="0.4"></path><path d="M261.63,174.93l-.88,5.31a4.73,4.73,0,0,0,2.16.4c1.65.06,1.56-.5,1.56-.5l-.87-5.21Z" fill="#3e3e4a"></path><ellipse cx="262.61" cy="174.93" rx="0.98" ry="0.49" fill="#55555f"></ellipse><ellipse cx="262.61" cy="180.28" rx="1.87" ry="0.94" fill="#3e3e4a"></ellipse><path d="M256.6,182.71a24.93,24.93,0,0,0-7.13,8.47c-2.83,5.23-4.44,11.33-3,17.24,3.35,13.67,16.82,5.36,19.08,2s8.25-8.39,11.15-9,4.51,1.59,7.86-1.25c5.38-4.56,1.31-12.84-2.59-16.42a20.69,20.69,0,0,0-25.38-1Z" fill="#f2eae8"></path><path d="M250.45,211.88c6.44,1.08,8-6.64,10.12-10.86,4.46-8.74,14.05-1.3,20-6.76a9.34,9.34,0,0,0,2.06-9.9c3.67,3.85,7,11.47,1.93,15.77-2.18,1.84-3.57,1.1-6,1.14-5,.1-10.38,5.25-13,9.13-2.18,3.28-14.8,11.12-18.69-.61A6,6,0,0,0,250.45,211.88Z" fill="#d8d0ce"></path><path d="M55,197.29c8.09-5.17,15.2-10.52,30.88-20.26a59.36,59.36,0,0,1-8.17-6.47c-8.37.54-17.52,1.22-18.64.34L34.13,184.22C41.28,188.22,48.22,192.65,55,197.29Z" opacity="0.41" fill="url(#linear-gradient-16)" style="mix-blend-mode: multiply;"></path><polygon points="86.21 178.02 86.21 99.82 69.16 109.34 69.16 187.85 86.21 178.02" fill="#68e1fd"></polygon><polygon points="86.21 178.02 86.21 99.82 69.16 109.34 69.16 187.85 86.21 178.02" fill="#1e4549" opacity="0.33"></polygon><polygon points="69.16 109.34 51.84 99.82 51.84 177.68 69.16 187.85 69.16 109.34" fill="#68e1fd"></polygon><polygon points="86.21 99.82 69.16 89.36 51.84 99.82 69.16 109.34 86.21 99.82" fill="#ccc"></polygon><polygon points="51.84 99.82 69.16 109.34 86.21 99.82 86.21 102.13 69.16 111.51 51.84 101.97 51.84 99.82" fill="#1e4549"></polygon><polygon points="53.9 109.89 53.9 106.24 56.07 107.43 56.07 110.94 53.9 109.89" fill="#e0e0e0"></polygon><polygon points="59.31 112.81 59.31 109.16 61.48 110.35 61.48 113.86 59.31 112.81" fill="#e0e0e0"></polygon><polygon points="64.93 116.27 64.93 112.61 67.1 113.8 67.1 117.31 64.93 116.27" fill="#e0e0e0"></polygon><polygon points="53.9 122.99 53.9 119.34 56.07 120.53 56.07 124.04 53.9 122.99" fill="#e0e0e0"></polygon><polygon points="59.31 125.91 59.31 122.26 61.48 123.45 61.48 126.96 59.31 125.91" fill="#e0e0e0"></polygon><polygon points="64.93 129.36 64.93 125.71 67.1 126.9 67.1 130.41 64.93 129.36" fill="#e0e0e0"></polygon><polygon points="53.9 137.97 53.9 134.32 56.07 135.51 56.07 139.02 53.9 137.97" fill="#e0e0e0"></polygon><polygon points="59.31 140.89 59.31 137.24 61.48 138.43 61.48 141.94 59.31 140.89" fill="#e0e0e0"></polygon><polygon points="64.93 144.34 64.93 140.69 67.1 141.88 67.1 145.39 64.93 144.34" fill="#e0e0e0"></polygon><polygon points="53.9 152.81 53.9 149.15 56.07 150.34 56.07 153.85 53.9 152.81" fill="#e0e0e0"></polygon><polygon points="59.31 155.73 59.31 152.07 61.48 153.26 61.48 156.77 59.31 155.73" fill="#e0e0e0"></polygon><polygon points="64.93 159.18 64.93 155.52 67.1 156.72 67.1 160.22 64.93 159.18" fill="#e0e0e0"></polygon><polygon points="53.9 167.64 53.9 163.99 56.07 165.18 56.07 168.69 53.9 167.64" fill="#e0e0e0"></polygon><polygon points="59.31 170.56 59.31 166.91 61.48 168.1 61.48 171.61 59.31 170.56" fill="#e0e0e0"></polygon><polygon points="64.93 174.01 64.93 170.36 67.1 171.55 67.1 175.06 64.93 174.01" fill="#e0e0e0"></polygon><polygon points="85.22 109.93 85.22 106.28 83.05 107.47 83.05 110.98 85.22 109.93" fill="#e0e0e0"></polygon><polygon points="79.81 112.86 79.81 109.2 77.63 110.39 77.63 113.9 79.81 112.86" fill="#e0e0e0"></polygon><polygon points="74.19 116.31 74.19 112.65 72.02 113.84 72.02 117.35 74.19 116.31" fill="#e0e0e0"></polygon><polygon points="85.22 123.03 85.22 119.38 83.05 120.57 83.05 124.08 85.22 123.03" fill="#e0e0e0"></polygon><polygon points="79.81 125.95 79.81 122.3 77.63 123.49 77.63 127 79.81 125.95" fill="#e0e0e0"></polygon><polygon points="74.19 129.4 74.19 125.75 72.02 126.94 72.02 130.45 74.19 129.4" fill="#e0e0e0"></polygon><polygon points="85.22 138.01 85.22 134.36 83.05 135.55 83.05 139.06 85.22 138.01" fill="#e0e0e0"></polygon><polygon points="79.81 140.93 79.81 137.28 77.63 138.47 77.63 141.98 79.81 140.93" fill="#e0e0e0"></polygon><polygon points="74.19 144.38 74.19 140.73 72.02 141.92 72.02 145.43 74.19 144.38" fill="#e0e0e0"></polygon><polygon points="85.22 152.84 85.22 149.19 83.05 150.38 83.05 153.89 85.22 152.84" fill="#e0e0e0"></polygon><polygon points="79.81 155.77 79.81 152.11 77.63 153.31 77.63 156.81 79.81 155.77" fill="#e0e0e0"></polygon><polygon points="74.19 159.22 74.19 155.56 72.02 156.75 72.02 160.26 74.19 159.22" fill="#e0e0e0"></polygon><polygon points="85.22 167.68 85.22 164.03 83.05 165.22 83.05 168.73 85.22 167.68" fill="#e0e0e0"></polygon><polygon points="79.81 170.6 79.81 166.95 77.63 168.14 77.63 171.65 79.81 170.6" fill="#e0e0e0"></polygon><polygon points="74.19 174.05 74.19 170.4 72.02 171.59 72.02 175.1 74.19 174.05" fill="#e0e0e0"></polygon><polygon points="51.84 126.93 69.31 135.97 86.21 127.09 86.21 130.7 69.16 139.57 51.84 130.7 51.84 126.93" fill="#2e5b5a"></polygon><polygon points="51.84 141.94 69.31 150.97 86.21 142.1 86.21 145.71 69.16 154.58 51.84 145.71 51.84 141.94" fill="#2e5b5a"></polygon><polygon points="51.84 156.77 69.31 165.81 86.21 156.93 86.21 160.54 69.16 169.41 51.84 160.54 51.84 156.77" fill="#2e5b5a"></polygon><polygon points="51.97 170.4 69.44 179.43 86.34 170.55 86.34 174.17 69.29 183.03 51.97 174.17 51.97 170.4" fill="#2e5b5a"></polygon><polygon points="51.84 112.61 69.31 121.64 86.21 112.77 86.21 116.38 69.16 125.25 51.84 116.38 51.84 112.61" fill="#2e5b5a"></polygon><path d="M52.78,191l1.88-1.77,8.73,4.12c-.9.46-2.2,1.25-3.46,2A63.72,63.72,0,0,1,52.78,191Z" opacity="0.68" fill="url(#linear-gradient-17)" style="mix-blend-mode: multiply;"></path><rect x="52.68" y="175.98" width="2.26" height="14.98" rx="1.13" ry="1.13" transform="translate(107.61 366.95) rotate(180)" fill="#bc532a"></rect><path d="M48.23,179c.52-2.26,2.84-12.22,6.94-9.3,2.1,1.5,2.7,3.85,3.54,6.14A18.28,18.28,0,0,1,60,181.83c.07,4.15-4.15,4.65-7.38,4.64-1.86,0-4.51-1.11-4.95-3.13a9.68,9.68,0,0,1,.44-3.85Z" fill="#2c9135"></path><path d="M48,179.49l.1-.44c.46-2,2.32-10,5.59-9.82-1,4.23-2.4,8.7-1.64,13a9.9,9.9,0,0,0,1.73,4.19c-.43,0-.86,0-1.27,0-1.86,0-4.51-1.11-4.95-3.13A9.68,9.68,0,0,1,48,179.49Z" fill="#156819"></path><path d="M108.2,167c8.09-5.17,15.2-10.52,30.88-20.26a59.36,59.36,0,0,1-8.17-6.47c-8.37.54-17.52,1.22-18.64.34L87.33,153.89C94.47,157.9,101.41,162.33,108.2,167Z" opacity="0.41" fill="url(#linear-gradient-18)" style="mix-blend-mode: multiply;"></path><polygon points="95.66 148.54 95.66 50.68 117 62.6 117 160.84 95.66 148.54" fill="#ffd9b6"></polygon><polygon points="117 62.6 138.67 50.68 138.67 148.12 117 160.84 117 62.6" fill="#fc9"></polygon><polygon points="95.66 50.68 117 37.59 138.67 50.68 117 62.6 95.66 50.68" fill="#9d9ca1"></polygon><polygon points="117 62.6 138.67 24.03 138.67 50.68 117 62.6" fill="#fc9"></polygon><polygon points="138.67 24.03 117.17 10.13 95.66 50.68 117 62.6 138.67 24.03" fill="#ffd9b6"></polygon><polygon points="133.79 52.98 133.79 56.52 136.14 55.29 136.14 51.61 133.79 52.98" fill="#3c637a"></polygon><polygon points="133.79 48.08 133.79 51.61 136.14 50.39 136.14 46.7 133.79 48.08" fill="#3c637a"></polygon><polygon points="133.79 62.79 133.79 66.33 136.14 65.1 136.14 61.42 133.79 62.79" fill="#3c637a"></polygon><polygon points="133.79 57.89 133.79 61.42 136.14 60.2 136.14 56.52 133.79 57.89" fill="#3c637a"></polygon><polygon points="133.79 73.47 133.79 77 136.14 75.78 136.14 72.09 133.79 73.47" fill="#3c637a"></polygon><polygon points="133.79 68.56 133.79 72.09 136.14 70.87 136.14 67.19 133.79 68.56" fill="#3c637a"></polygon><polygon points="133.79 83.28 133.79 86.81 136.14 85.58 136.14 81.9 133.79 83.28" fill="#3c637a"></polygon><polygon points="133.79 78.37 133.79 81.9 136.14 80.68 136.14 77 133.79 78.37" fill="#3c637a"></polygon><polygon points="133.83 93.95 133.83 97.48 136.19 96.26 136.19 92.58 133.83 93.95" fill="#3c637a"></polygon><polygon points="133.83 89.04 133.83 92.58 136.19 91.35 136.19 87.67 133.83 89.04" fill="#3c637a"></polygon><polygon points="133.83 103.76 133.83 107.29 136.19 106.07 136.19 102.39 133.83 103.76" fill="#3c637a"></polygon><polygon points="133.83 98.85 133.83 102.39 136.19 101.16 136.19 97.48 133.83 98.85" fill="#3c637a"></polygon><polygon points="133.83 114.43 133.83 117.96 136.19 116.74 136.19 113.06 133.83 114.43" fill="#3c637a"></polygon><polygon points="133.83 109.53 133.83 113.06 136.19 111.83 136.19 108.15 133.83 109.53" fill="#3c637a"></polygon><polygon points="133.83 124.24 133.83 127.77 136.19 126.55 136.19 122.87 133.83 124.24" fill="#3c637a"></polygon><polygon points="133.83 119.34 133.83 122.87 136.19 121.64 136.19 117.96 133.83 119.34" fill="#3c637a"></polygon><polygon points="133.83 134.45 133.83 137.98 136.19 136.76 136.19 133.07 133.83 134.45" fill="#3c637a"></polygon><polygon points="133.83 129.54 133.83 133.07 136.19 131.85 136.19 128.17 133.83 129.54" fill="#3c637a"></polygon><polygon points="133.83 144.26 133.83 147.79 136.19 146.57 136.19 142.89 133.83 144.26" fill="#3c637a"></polygon><polygon points="133.83 139.35 133.83 142.89 136.19 141.66 136.19 137.98 133.83 139.35" fill="#3c637a"></polygon><polygon points="129.62 54.88 129.62 58.41 131.98 57.19 131.98 53.5 129.62 54.88" fill="#3c637a"></polygon><polygon points="129.62 49.97 129.62 53.5 131.98 52.28 131.98 48.6 129.62 49.97" fill="#3c637a"></polygon><polygon points="129.62 64.69 129.62 68.22 131.98 67 131.98 63.31 129.62 64.69" fill="#3c637a"></polygon><polygon points="129.62 59.78 129.62 63.31 131.98 62.09 131.98 58.41 129.62 59.78" fill="#3c637a"></polygon><polygon points="129.62 75.36 129.62 78.89 131.98 77.67 131.98 73.99 129.62 75.36" fill="#3c637a"></polygon><polygon points="129.62 70.45 129.62 73.99 131.98 72.76 131.98 69.08 129.62 70.45" fill="#3c637a"></polygon><polygon points="129.62 85.17 129.62 88.7 131.98 87.48 131.98 83.8 129.62 85.17" fill="#3c637a"></polygon><polygon points="129.62 80.27 129.62 83.8 131.98 82.57 131.98 78.89 129.62 80.27" fill="#3c637a"></polygon><polygon points="129.67 95.84 129.67 99.38 132.02 98.15 132.02 94.47 129.67 95.84" fill="#3c637a"></polygon><polygon points="129.67 90.94 129.67 94.47 132.02 93.25 132.02 89.56 129.67 90.94" fill="#3c637a"></polygon><polygon points="129.67 105.65 129.67 109.19 132.02 107.96 132.02 104.28 129.67 105.65" fill="#3c637a"></polygon><polygon points="129.67 100.75 129.67 104.28 132.02 103.06 132.02 99.38 129.67 100.75" fill="#3c637a"></polygon><polygon points="129.67 116.33 129.67 119.86 132.02 118.63 132.02 114.95 129.67 116.33" fill="#3c637a"></polygon><polygon points="129.67 111.42 129.67 114.95 132.02 113.73 132.02 110.05 129.67 111.42" fill="#3c637a"></polygon><polygon points="129.67 126.14 129.67 129.67 132.02 128.44 132.02 124.76 129.67 126.14" fill="#3c637a"></polygon><polygon points="129.67 121.23 129.67 124.76 132.02 123.54 132.02 119.86 129.67 121.23" fill="#3c637a"></polygon><polygon points="129.67 136.34 129.67 139.87 132.02 138.65 132.02 134.97 129.67 136.34" fill="#3c637a"></polygon><polygon points="129.67 131.44 129.67 134.97 132.02 133.75 132.02 130.06 129.67 131.44" fill="#3c637a"></polygon><polygon points="129.67 146.15 129.67 149.69 132.02 148.46 132.02 144.78 129.67 146.15" fill="#3c637a"></polygon><polygon points="129.67 141.25 129.67 144.78 132.02 143.56 132.02 139.87 129.67 141.25" fill="#3c637a"></polygon><polygon points="124.67 57.95 124.67 61.48 127.03 60.25 127.03 56.57 124.67 57.95" fill="#3c637a"></polygon><polygon points="124.67 53.04 124.67 56.57 127.03 55.35 127.03 51.67 124.67 53.04" fill="#3c637a"></polygon><polygon points="124.67 67.75 124.67 71.29 127.03 70.06 127.03 66.38 124.67 67.75" fill="#3c637a"></polygon><polygon points="124.67 62.85 124.67 66.38 127.03 65.16 127.03 61.48 124.67 62.85" fill="#3c637a"></polygon><polygon points="124.67 78.43 124.67 81.96 127.03 80.74 127.03 77.05 124.67 78.43" fill="#3c637a"></polygon><polygon points="124.67 73.52 124.67 77.05 127.03 75.83 127.03 72.15 124.67 73.52" fill="#3c637a"></polygon><polygon points="124.67 88.24 124.67 91.77 127.03 90.55 127.03 86.86 124.67 88.24" fill="#3c637a"></polygon><polygon points="124.67 83.33 124.67 86.86 127.03 85.64 127.03 81.96 124.67 83.33" fill="#3c637a"></polygon><polygon points="124.72 98.91 124.72 102.44 127.07 101.22 127.07 97.54 124.72 98.91" fill="#3c637a"></polygon><polygon points="124.72 94 124.72 97.54 127.07 96.31 127.07 92.63 124.72 94" fill="#3c637a"></polygon><polygon points="124.72 108.72 124.72 112.25 127.07 111.03 127.07 107.35 124.72 108.72" fill="#3c637a"></polygon><polygon points="124.72 103.81 124.72 107.35 127.07 106.12 127.07 102.44 124.72 103.81" fill="#3c637a"></polygon><polygon points="124.72 119.39 124.72 122.92 127.07 121.7 127.07 118.02 124.72 119.39" fill="#3c637a"></polygon><polygon points="124.72 114.49 124.72 118.02 127.07 116.8 127.07 113.11 124.72 114.49" fill="#3c637a"></polygon><polygon points="124.72 129.2 124.72 132.74 127.07 131.51 127.07 127.83 124.72 129.2" fill="#3c637a"></polygon><polygon points="124.72 124.3 124.72 127.83 127.07 126.61 127.07 122.92 124.72 124.3" fill="#3c637a"></polygon><polygon points="124.72 139.41 124.72 142.94 127.07 141.72 127.07 138.04 124.72 139.41" fill="#3c637a"></polygon><polygon points="124.72 134.5 124.72 138.04 127.07 136.81 127.07 133.13 124.72 134.5" fill="#3c637a"></polygon><polygon points="124.72 149.22 124.72 152.75 127.07 151.53 127.07 147.85 124.72 149.22" fill="#3c637a"></polygon><polygon points="124.72 144.31 124.72 147.85 127.07 146.62 127.07 142.94 124.72 144.31" fill="#3c637a"></polygon><polygon points="120.29 61.24 120.29 64.77 122.64 63.55 122.64 59.87 120.29 61.24" fill="#3c637a"></polygon><polygon points="120.29 71.05 120.29 74.58 122.64 73.36 122.64 69.68 120.29 71.05" fill="#3c637a"></polygon><polygon points="120.29 66.15 120.29 69.68 122.64 68.45 122.64 64.77 120.29 66.15" fill="#3c637a"></polygon><polygon points="120.29 81.72 120.29 85.26 122.64 84.03 122.64 80.35 120.29 81.72" fill="#3c637a"></polygon><polygon points="120.29 76.82 120.29 80.35 122.64 79.13 122.64 75.45 120.29 76.82" fill="#3c637a"></polygon><polygon points="120.29 91.53 120.29 95.07 122.64 93.84 122.64 90.16 120.29 91.53" fill="#3c637a"></polygon><polygon points="120.29 86.63 120.29 90.16 122.64 88.94 122.64 85.26 120.29 86.63" fill="#3c637a"></polygon><polygon points="120.34 102.21 120.34 105.74 122.69 104.52 122.69 100.83 120.34 102.21" fill="#3c637a"></polygon><polygon points="120.34 97.3 120.34 100.83 122.69 99.61 122.69 95.93 120.34 97.3" fill="#3c637a"></polygon><polygon points="120.34 112.02 120.34 115.55 122.69 114.33 122.69 110.64 120.34 112.02" fill="#3c637a"></polygon><polygon points="120.34 107.11 120.34 110.64 122.69 109.42 122.69 105.74 120.34 107.11" fill="#3c637a"></polygon><polygon points="120.34 122.69 120.34 126.22 122.69 125 122.69 121.32 120.34 122.69" fill="#3c637a"></polygon><polygon points="120.34 117.78 120.34 121.32 122.69 120.09 122.69 116.41 120.34 117.78" fill="#3c637a"></polygon><polygon points="120.34 132.5 120.34 136.03 122.69 134.81 122.69 131.13 120.34 132.5" fill="#3c637a"></polygon><polygon points="120.34 127.59 120.34 131.13 122.69 129.9 122.69 126.22 120.34 127.59" fill="#3c637a"></polygon><polygon points="120.34 142.71 120.34 146.24 122.69 145.01 122.69 141.33 120.34 142.71" fill="#3c637a"></polygon><polygon points="120.34 137.8 120.34 141.33 122.69 140.11 122.69 136.43 120.34 137.8" fill="#3c637a"></polygon><polygon points="120.34 152.52 120.34 156.05 122.69 154.82 122.69 151.14 120.34 152.52" fill="#3c637a"></polygon><polygon points="120.34 147.61 120.34 151.14 122.69 149.92 122.69 146.24 120.34 147.61" fill="#3c637a"></polygon><polygon points="100.12 63.7 100.12 67.23 97.77 66.01 97.77 62.33 100.12 63.7" fill="#3c637a"></polygon><polygon points="100.12 58.8 100.12 62.33 97.77 61.1 97.77 57.42 100.12 58.8" fill="#3c637a"></polygon><polygon points="100.12 74.37 100.12 77.91 97.77 76.68 97.77 73 100.12 74.37" fill="#3c637a"></polygon><polygon points="100.12 69.47 100.12 73 97.77 71.78 97.77 68.09 100.12 69.47" fill="#3c637a"></polygon><polygon points="100.12 84.18 100.12 87.72 97.77 86.49 97.77 82.81 100.12 84.18" fill="#3c637a"></polygon><polygon points="100.12 79.28 100.12 82.81 97.77 81.59 97.77 77.91 100.12 79.28" fill="#3c637a"></polygon><polygon points="100.07 94.86 100.07 98.39 97.72 97.17 97.72 93.48 100.07 94.86" fill="#3c637a"></polygon><polygon points="100.07 89.95 100.07 93.48 97.72 92.26 97.72 88.58 100.07 89.95" fill="#3c637a"></polygon><polygon points="100.07 104.67 100.07 108.2 97.72 106.97 97.72 103.29 100.07 104.67" fill="#3c637a"></polygon><polygon points="100.07 99.76 100.07 103.29 97.72 102.07 97.72 98.39 100.07 99.76" fill="#3c637a"></polygon><polygon points="100.07 115.34 100.07 118.87 97.72 117.65 97.72 113.97 100.07 115.34" fill="#3c637a"></polygon><polygon points="100.07 110.43 100.07 113.97 97.72 112.74 97.72 109.06 100.07 110.43" fill="#3c637a"></polygon><polygon points="100.07 125.15 100.07 128.68 97.72 127.46 97.72 123.78 100.07 125.15" fill="#3c637a"></polygon><polygon points="100.07 120.24 100.07 123.78 97.72 122.55 97.72 118.87 100.07 120.24" fill="#3c637a"></polygon><polygon points="100.07 135.36 100.07 138.89 97.72 137.66 97.72 133.98 100.07 135.36" fill="#3c637a"></polygon><polygon points="100.07 130.45 100.07 133.98 97.72 132.76 97.72 129.08 100.07 130.45" fill="#3c637a"></polygon><polygon points="100.07 145.17 100.07 148.7 97.72 147.47 97.72 143.79 100.07 145.17" fill="#3c637a"></polygon><polygon points="100.07 140.26 100.07 143.79 97.72 142.57 97.72 138.89 100.07 140.26" fill="#3c637a"></polygon><polygon points="104.43 66.38 104.43 69.91 102.07 68.69 102.07 65.01 104.43 66.38" fill="#3c637a"></polygon><polygon points="104.43 61.48 104.43 65.01 102.07 63.78 102.07 60.1 104.43 61.48" fill="#3c637a"></polygon><polygon points="104.43 77.05 104.43 80.58 102.07 79.36 102.07 75.68 104.43 77.05" fill="#3c637a"></polygon><polygon points="104.43 72.15 104.43 75.68 102.07 74.45 102.07 70.77 104.43 72.15" fill="#3c637a"></polygon><polygon points="104.43 86.86 104.43 90.39 102.07 89.17 102.07 85.49 104.43 86.86" fill="#3c637a"></polygon><polygon points="104.43 81.96 104.43 85.49 102.07 84.27 102.07 80.58 104.43 81.96" fill="#3c637a"></polygon><polygon points="104.38 97.53 104.38 101.07 102.03 99.84 102.03 96.16 104.38 97.53" fill="#3c637a"></polygon><polygon points="104.38 92.63 104.38 96.16 102.03 94.94 102.03 91.26 104.38 92.63" fill="#3c637a"></polygon><polygon points="104.38 107.34 104.38 110.88 102.03 109.65 102.03 105.97 104.38 107.34" fill="#3c637a"></polygon><polygon points="104.38 102.44 104.38 105.97 102.03 104.75 102.03 101.07 104.38 102.44" fill="#3c637a"></polygon><polygon points="104.38 118.02 104.38 121.55 102.03 120.33 102.03 116.64 104.38 118.02" fill="#3c637a"></polygon><polygon points="104.38 113.11 104.38 116.64 102.03 115.42 102.03 111.74 104.38 113.11" fill="#3c637a"></polygon><polygon points="104.38 127.83 104.38 131.36 102.03 130.13 102.03 126.45 104.38 127.83" fill="#3c637a"></polygon><polygon points="104.38 122.92 104.38 126.45 102.03 125.23 102.03 121.55 104.38 122.92" fill="#3c637a"></polygon><polygon points="104.38 138.03 104.38 141.57 102.03 140.34 102.03 136.66 104.38 138.03" fill="#3c637a"></polygon><polygon points="104.38 133.13 104.38 136.66 102.03 135.44 102.03 131.75 104.38 133.13" fill="#3c637a"></polygon><polygon points="104.38 147.84 104.38 151.38 102.03 150.15 102.03 146.47 104.38 147.84" fill="#3c637a"></polygon><polygon points="104.38 142.94 104.38 146.47 102.03 145.25 102.03 141.57 104.38 142.94" fill="#3c637a"></polygon><polygon points="108.73 68.92 108.73 72.45 106.38 71.22 106.38 67.54 108.73 68.92" fill="#3c637a"></polygon><polygon points="108.73 64.01 108.73 67.54 106.38 66.32 106.38 62.64 108.73 64.01" fill="#3c637a"></polygon><polygon points="108.73 79.59 108.73 83.12 106.38 81.9 106.38 78.22 108.73 79.59" fill="#3c637a"></polygon><polygon points="108.73 74.68 108.73 78.22 106.38 76.99 106.38 73.31 108.73 74.68" fill="#3c637a"></polygon><polygon points="108.73 89.4 108.73 92.93 106.38 91.71 106.38 88.03 108.73 89.4" fill="#3c637a"></polygon><polygon points="108.73 84.49 108.73 88.03 106.38 86.8 106.38 83.12 108.73 84.49" fill="#3c637a"></polygon><polygon points="108.69 100.07 108.69 103.6 106.33 102.38 106.33 98.7 108.69 100.07" fill="#3c637a"></polygon><polygon points="108.69 95.17 108.69 98.7 106.33 97.47 106.33 93.79 108.69 95.17" fill="#3c637a"></polygon><polygon points="108.69 109.88 108.69 113.41 106.33 112.19 106.33 108.51 108.69 109.88" fill="#3c637a"></polygon><polygon points="108.69 104.98 108.69 108.51 106.33 107.28 106.33 103.6 108.69 104.98" fill="#3c637a"></polygon><polygon points="108.69 120.55 108.69 124.08 106.33 122.86 106.33 119.18 108.69 120.55" fill="#3c637a"></polygon><polygon points="108.69 115.65 108.69 119.18 106.33 117.96 106.33 114.28 108.69 115.65" fill="#3c637a"></polygon><polygon points="108.69 130.36 108.69 133.9 106.33 132.67 106.33 128.99 108.69 130.36" fill="#3c637a"></polygon><polygon points="108.69 125.46 108.69 128.99 106.33 127.77 106.33 124.08 108.69 125.46" fill="#3c637a"></polygon><polygon points="108.69 140.57 108.69 144.1 106.33 142.88 106.33 139.2 108.69 140.57" fill="#3c637a"></polygon><polygon points="108.69 135.67 108.69 139.2 106.33 137.97 106.33 134.29 108.69 135.67" fill="#3c637a"></polygon><polygon points="108.69 150.38 108.69 153.91 106.33 152.69 106.33 149.01 108.69 150.38" fill="#3c637a"></polygon><polygon points="108.69 145.48 108.69 149.01 106.33 147.78 106.33 144.1 108.69 145.48" fill="#3c637a"></polygon><polygon points="113.25 71.61 113.25 75.15 110.89 73.92 110.89 70.24 113.25 71.61" fill="#3c637a"></polygon><polygon points="113.25 66.71 113.25 70.24 110.89 69.02 110.89 65.34 113.25 66.71" fill="#3c637a"></polygon><polygon points="113.25 82.29 113.25 85.82 110.89 84.6 110.89 80.91 113.25 82.29" fill="#3c637a"></polygon><polygon points="113.25 77.38 113.25 80.91 110.89 79.69 110.89 76.01 113.25 77.38" fill="#3c637a"></polygon><polygon points="113.25 92.1 113.25 95.63 110.89 94.41 110.89 90.72 113.25 92.1" fill="#3c637a"></polygon><polygon points="113.25 87.19 113.25 90.72 110.89 89.5 110.89 85.82 113.25 87.19" fill="#3c637a"></polygon><polygon points="113.2 102.77 113.2 106.3 110.85 105.08 110.85 101.4 113.2 102.77" fill="#3c637a"></polygon><polygon points="113.2 97.86 113.2 101.4 110.85 100.17 110.85 96.49 113.2 97.86" fill="#3c637a"></polygon><polygon points="113.2 112.58 113.2 116.11 110.85 114.89 110.85 111.21 113.2 112.58" fill="#3c637a"></polygon><polygon points="113.2 107.67 113.2 111.21 110.85 109.98 110.85 106.3 113.2 107.67" fill="#3c637a"></polygon><polygon points="113.2 123.25 113.2 126.78 110.85 125.56 110.85 121.88 113.2 123.25" fill="#3c637a"></polygon><polygon points="113.2 118.35 113.2 121.88 110.85 120.66 110.85 116.97 113.2 118.35" fill="#3c637a"></polygon><polygon points="113.2 133.06 113.2 136.59 110.85 135.37 110.85 131.69 113.2 133.06" fill="#3c637a"></polygon><polygon points="113.2 128.16 113.2 131.69 110.85 130.47 110.85 126.78 113.2 128.16" fill="#3c637a"></polygon><polygon points="113.2 143.27 113.2 146.8 110.85 145.58 110.85 141.9 113.2 143.27" fill="#3c637a"></polygon><polygon points="113.2 138.36 113.2 141.9 110.85 140.67 110.85 136.99 113.2 138.36" fill="#3c637a"></polygon><polygon points="113.2 153.08 113.2 156.61 110.85 155.39 110.85 151.71 113.2 153.08" fill="#3c637a"></polygon><polygon points="113.2 148.18 113.2 151.71 110.85 150.48 110.85 146.8 113.2 148.18" fill="#3c637a"></polygon><polygon points="133.48 27.01 117.17 16.47 100.86 47.22 117.04 56.26 133.48 27.01" fill="none" stroke="#ddb287" stroke-miterlimit="10"></polygon><path d="M149.32,141.57c8.09-5.17,29.14-16.32,44.83-26.06-2.89-2-18.5,3.07-21,.64-8.37.54-17.52,1.22-18.64.34l-24.93,13.32C136.71,133.81,142.54,136.93,149.32,141.57Z" opacity="0.41" fill="url(#linear-gradient-19)" style="mix-blend-mode: multiply;"></path><polygon points="201.98 111.71 201.98 39.89 186.32 48.64 186.32 120.74 201.98 111.71" fill="#68e1fd"></polygon><polygon points="201.98 111.71 201.98 39.89 186.32 48.64 186.32 120.74 201.98 111.71" fill="#1e4549" opacity="0.33"></polygon><polygon points="186.32 48.64 170.41 39.89 170.41 111.4 186.32 120.74 186.32 48.64" fill="#68e1fd"></polygon><polygon points="201.98 39.89 186.32 30.28 170.41 39.89 186.32 48.64 201.98 39.89" fill="#ccc"></polygon><polygon points="170.41 39.89 186.32 48.64 201.98 39.89 201.98 42.01 186.32 50.63 170.41 41.86 170.41 39.89" fill="#1e4549"></polygon><polygon points="172.3 49.14 172.3 45.79 174.3 46.88 174.3 50.1 172.3 49.14" fill="#e0e0e0"></polygon><polygon points="177.28 51.82 177.28 48.47 179.27 49.56 179.27 52.79 177.28 51.82" fill="#e0e0e0"></polygon><polygon points="182.43 54.99 182.43 51.64 184.43 52.73 184.43 55.95 182.43 54.99" fill="#e0e0e0"></polygon><polygon points="172.3 61.17 172.3 57.81 174.3 58.91 174.3 62.13 172.3 61.17" fill="#e0e0e0"></polygon><polygon points="177.28 63.85 177.28 60.49 179.27 61.59 179.27 64.81 177.28 63.85" fill="#e0e0e0"></polygon><polygon points="182.43 67.02 182.43 63.66 184.43 64.76 184.43 67.98 182.43 67.02" fill="#e0e0e0"></polygon><polygon points="172.3 74.93 172.3 71.57 174.3 72.67 174.3 75.89 172.3 74.93" fill="#e0e0e0"></polygon><polygon points="177.28 77.61 177.28 74.25 179.27 75.35 179.27 78.57 177.28 77.61" fill="#e0e0e0"></polygon><polygon points="182.43 80.78 182.43 77.42 184.43 78.52 184.43 81.74 182.43 80.78" fill="#e0e0e0"></polygon><polygon points="172.3 88.55 172.3 85.2 174.3 86.29 174.3 89.51 172.3 88.55" fill="#e0e0e0"></polygon><polygon points="177.28 91.23 177.28 87.88 179.27 88.97 179.27 92.2 177.28 91.23" fill="#e0e0e0"></polygon><polygon points="182.43 94.4 182.43 91.05 184.43 92.14 184.43 95.36 182.43 94.4" fill="#e0e0e0"></polygon><polygon points="172.3 102.17 172.3 98.82 174.3 99.91 174.3 103.14 172.3 102.17" fill="#e0e0e0"></polygon><polygon points="177.28 104.86 177.28 101.5 179.27 102.6 179.27 105.82 177.28 104.86" fill="#e0e0e0"></polygon><polygon points="182.43 108.03 182.43 104.67 184.43 105.77 184.43 108.99 182.43 108.03" fill="#e0e0e0"></polygon><polygon points="201.07 49.18 201.07 45.82 199.07 46.92 199.07 50.14 201.07 49.18" fill="#e0e0e0"></polygon><polygon points="196.1 51.86 196.1 48.51 194.1 49.6 194.1 52.82 196.1 51.86" fill="#e0e0e0"></polygon><polygon points="190.94 55.03 190.94 51.67 188.94 52.77 188.94 55.99 190.94 55.03" fill="#e0e0e0"></polygon><polygon points="201.07 61.2 201.07 57.85 199.07 58.94 199.07 62.17 201.07 61.2" fill="#e0e0e0"></polygon><polygon points="196.1 63.89 196.1 60.53 194.1 61.63 194.1 64.85 196.1 63.89" fill="#e0e0e0"></polygon><polygon points="190.94 67.06 190.94 63.7 188.94 64.79 188.94 68.02 190.94 67.06" fill="#e0e0e0"></polygon><polygon points="201.07 74.96 201.07 71.61 199.07 72.7 199.07 75.93 201.07 74.96" fill="#e0e0e0"></polygon><polygon points="196.1 77.65 196.1 74.29 194.1 75.39 194.1 78.61 196.1 77.65" fill="#e0e0e0"></polygon><polygon points="190.94 80.81 190.94 77.46 188.94 78.55 188.94 81.78 190.94 80.81" fill="#e0e0e0"></polygon><polygon points="201.07 88.59 201.07 85.23 199.07 86.33 199.07 89.55 201.07 88.59" fill="#e0e0e0"></polygon><polygon points="196.1 91.27 196.1 87.92 194.1 89.01 194.1 92.23 196.1 91.27" fill="#e0e0e0"></polygon><polygon points="190.94 94.44 190.94 91.08 188.94 92.18 188.94 95.4 190.94 94.44" fill="#e0e0e0"></polygon><polygon points="201.07 102.21 201.07 98.86 199.07 99.95 199.07 103.17 201.07 102.21" fill="#e0e0e0"></polygon><polygon points="196.1 104.89 196.1 101.54 194.1 102.63 194.1 105.86 196.1 104.89" fill="#e0e0e0"></polygon><polygon points="190.94 108.06 190.94 104.71 188.94 105.8 188.94 109.02 190.94 108.06" fill="#e0e0e0"></polygon><polygon points="170.41 64.79 186.46 73.08 201.98 64.93 201.98 68.25 186.32 76.4 170.41 68.25 170.41 64.79" fill="#2e5b5a"></polygon><polygon points="170.41 78.57 186.46 86.87 201.98 78.72 201.98 82.03 186.32 90.18 170.41 82.03 170.41 78.57" fill="#2e5b5a"></polygon><polygon points="170.41 92.2 186.46 100.49 201.98 92.34 201.98 95.66 186.32 103.8 170.41 95.66 170.41 92.2" fill="#2e5b5a"></polygon><polygon points="170.54 104.71 186.58 113 202.1 104.85 202.1 108.17 186.44 116.31 170.54 108.17 170.54 104.71" fill="#2e5b5a"></polygon><polygon points="170.41 51.64 186.46 59.93 201.98 51.78 201.98 55.1 186.32 63.24 170.41 55.1 170.41 51.64" fill="#2e5b5a"></polygon><polygon points="180.15 123.97 180.15 52.15 164.48 60.9 164.48 133 180.15 123.97" fill="#68e1fd"></polygon><polygon points="180.15 123.97 180.15 52.15 164.48 60.9 164.48 133 180.15 123.97" fill="#1e4549" opacity="0.33"></polygon><polygon points="164.48 60.9 148.58 52.15 148.58 123.67 164.48 133 164.48 60.9" fill="#68e1fd"></polygon><polygon points="180.15 52.15 164.48 42.55 148.58 52.15 164.48 60.9 180.15 52.15" fill="#ccc"></polygon><polygon points="148.58 52.15 164.48 60.9 180.15 52.15 180.14 54.27 164.48 62.89 148.58 54.13 148.58 52.15" fill="#1e4549"></polygon><polygon points="150.47 61.41 150.47 58.05 152.46 59.15 152.46 62.37 150.47 61.41" fill="#e0e0e0"></polygon><polygon points="155.44 64.09 155.44 60.73 157.44 61.83 157.44 65.05 155.44 64.09" fill="#e0e0e0"></polygon><polygon points="160.6 67.26 160.6 63.9 162.59 65 162.59 68.22 160.6 67.26" fill="#e0e0e0"></polygon><polygon points="150.47 73.43 150.47 70.08 152.46 71.17 152.46 74.4 150.47 73.43" fill="#e0e0e0"></polygon><polygon points="155.44 76.12 155.44 72.76 157.44 73.86 157.44 77.08 155.44 76.12" fill="#e0e0e0"></polygon><polygon points="160.6 79.28 160.6 75.93 162.59 77.02 162.59 80.25 160.6 79.28" fill="#e0e0e0"></polygon><polygon points="150.47 87.19 150.47 83.84 152.46 84.93 152.46 88.16 150.47 87.19" fill="#e0e0e0"></polygon><polygon points="155.44 89.88 155.44 86.52 157.44 87.62 157.44 90.84 155.44 89.88" fill="#e0e0e0"></polygon><polygon points="160.6 93.05 160.6 89.69 162.59 90.78 162.59 94.01 160.6 93.05" fill="#e0e0e0"></polygon><polygon points="150.47 100.82 150.47 97.46 152.46 98.56 152.46 101.78 150.47 100.82" fill="#e0e0e0"></polygon><polygon points="155.44 103.5 155.44 100.14 157.44 101.24 157.44 104.46 155.44 103.5" fill="#e0e0e0"></polygon><polygon points="160.6 106.67 160.6 103.31 162.59 104.41 162.59 107.63 160.6 106.67" fill="#e0e0e0"></polygon><polygon points="150.47 114.44 150.47 111.09 152.46 112.18 152.46 115.4 150.47 114.44" fill="#e0e0e0"></polygon><polygon points="155.44 117.12 155.44 113.77 157.44 114.86 157.44 118.09 155.44 117.12" fill="#e0e0e0"></polygon><polygon points="160.6 120.29 160.6 116.94 162.59 118.03 162.59 121.25 160.6 120.29" fill="#e0e0e0"></polygon><polygon points="179.23 61.44 179.23 58.09 177.24 59.18 177.24 62.41 179.23 61.44" fill="#e0e0e0"></polygon><polygon points="174.26 64.13 174.26 60.77 172.27 61.87 172.27 65.09 174.26 64.13" fill="#e0e0e0"></polygon><polygon points="169.1 67.3 169.1 63.94 167.11 65.03 167.11 68.26 169.1 67.3" fill="#e0e0e0"></polygon><polygon points="179.23 73.47 179.23 70.11 177.24 71.21 177.24 74.43 179.23 73.47" fill="#e0e0e0"></polygon><polygon points="174.26 76.15 174.26 72.8 172.27 73.89 172.27 77.11 174.26 76.15" fill="#e0e0e0"></polygon><polygon points="169.1 79.32 169.1 75.97 167.11 77.06 167.11 80.28 169.1 79.32" fill="#e0e0e0"></polygon><polygon points="179.23 87.23 179.23 83.88 177.24 84.97 177.24 88.19 179.23 87.23" fill="#e0e0e0"></polygon><polygon points="174.26 89.91 174.26 86.56 172.27 87.65 172.27 90.88 174.26 89.91" fill="#e0e0e0"></polygon><polygon points="169.1 93.08 169.1 89.73 167.11 90.82 167.11 94.04 169.1 93.08" fill="#e0e0e0"></polygon><polygon points="179.23 100.85 179.23 97.5 177.24 98.59 177.24 101.82 179.23 100.85" fill="#e0e0e0"></polygon><polygon points="174.26 103.54 174.26 100.18 172.27 101.28 172.27 104.5 174.26 103.54" fill="#e0e0e0"></polygon><polygon points="169.1 106.7 169.1 103.35 167.11 104.44 167.11 107.67 169.1 106.7" fill="#e0e0e0"></polygon><polygon points="179.23 114.48 179.23 111.12 177.24 112.22 177.24 115.44 179.23 114.48" fill="#e0e0e0"></polygon><polygon points="174.26 117.16 174.26 113.81 172.27 114.9 172.27 118.12 174.26 117.16" fill="#e0e0e0"></polygon><polygon points="169.1 120.33 169.1 116.97 167.11 118.07 167.11 121.29 169.1 120.33" fill="#e0e0e0"></polygon><polygon points="148.58 77.06 164.62 85.35 180.14 77.2 180.14 80.52 164.48 88.66 148.58 80.52 148.58 77.06" fill="#2e5b5a"></polygon><polygon points="148.58 90.84 164.62 99.13 180.14 90.98 180.14 94.3 164.48 102.44 148.58 94.3 148.58 90.84" fill="#2e5b5a"></polygon><polygon points="148.58 104.46 164.62 112.76 180.14 104.61 180.14 107.92 164.48 116.07 148.58 107.92 148.58 104.46" fill="#2e5b5a"></polygon><polygon points="148.7 116.97 164.74 125.27 180.27 117.12 180.27 120.44 164.61 128.58 148.7 120.44 148.7 116.97" fill="#2e5b5a"></polygon><polygon points="148.58 63.9 164.62 72.2 180.14 64.05 180.14 67.37 164.48 75.51 148.58 67.37 148.58 63.9" fill="#2e5b5a"></polygon><path d="M146,142.67l1.88-1.77,8.73,4.12c-.9.46-2.2,1.25-3.46,2A63.72,63.72,0,0,1,146,142.67Z" opacity="0.68" fill="url(#linear-gradient-20)" style="mix-blend-mode: multiply;"></path><rect x="145.93" y="127.66" width="2.26" height="14.98" rx="1.13" ry="1.13" transform="translate(294.12 270.3) rotate(-180)" fill="#bc532a"></rect><path d="M141.48,130.72c.52-2.26,2.84-12.22,6.94-9.3,2.1,1.5,2.7,3.85,3.54,6.14a18.28,18.28,0,0,1,1.31,5.94c.07,4.15-4.15,4.65-7.38,4.64-1.86,0-4.51-1.11-4.95-3.13a9.68,9.68,0,0,1,.44-3.85Z" fill="#2c9135"></path><path d="M141.28,131.16l.1-.44c.46-2,2.32-10,5.59-9.82-1,4.23-2.4,8.7-1.64,13a9.9,9.9,0,0,0,1.73,4.19c-.43,0-.86,0-1.27,0-1.86,0-4.51-1.11-4.95-3.13A9.68,9.68,0,0,1,141.28,131.16Z" fill="#156819"></path><ellipse cx="186.47" cy="39.42" rx="7.2" ry="3.62" fill="#abacb7"></ellipse><ellipse cx="186.47" cy="38.48" rx="7.2" ry="3.62" fill="#f2f2f2"></ellipse><path d="M188.68,37.24s0,0,0-.05l-2.59-18.37-1.59,19.56C186,39.23,188.57,39.34,188.68,37.24Z" fill="#e5e5e5"></path><path d="M185.88,21.63l-1.34,16.48a.4.4,0,0,0,.22.39,4.5,4.5,0,0,0,2,.44Q186,30.31,185.88,21.63Z" fill="#abacb7"></path><polyline points="79.94 98.33 79.94 100.68 69.03 106.99 58.11 100.68 58.11 98.33" fill="#abacb7"></polyline><polygon points="79.94 98.35 69.11 91.71 58.11 98.35 69.11 104.4 79.94 98.35" fill="#f4f4f4"></polygon><path d="M67.56,98.75s0,0,0-.05L65,80.33,63.4,99.89C64.91,100.73,67.45,100.85,67.56,98.75Z" fill="#e5e5e5"></path><path d="M64.76,83.14,63.4,99.89a4.51,4.51,0,0,0,2.19.57Q64.89,91.82,64.76,83.14Z" fill="#abacb7"></path><path d="M73.32,96.07s0,0,0-.05L70.75,77.65,69.16,97.21C70.66,98.06,73.2,98.17,73.32,96.07Z" fill="#e5e5e5"></path><path d="M70.52,80.46,69.16,97.21a4.51,4.51,0,0,0,2.19.57Q70.64,89.14,70.52,80.46Z" fill="#abacb7"></path><path d="M94.28,171.13l2.13-2,9.9,4.68c-1,.52-2.49,1.41-3.92,2.25A72.26,72.26,0,0,1,94.28,171.13Z" opacity="0.68" fill="url(#linear-gradient-21)" style="mix-blend-mode: multiply;"></path><rect x="95.78" y="150.77" width="0.81" height="19.51" transform="translate(192.38 321.05) rotate(-180)" fill="#404048"></rect><circle cx="96.25" cy="150.3" r="2.42" fill="#68e1fd"></circle><circle cx="97.35" cy="149.38" r="0.5" fill="#fff"></circle><path d="M94.42,148.73a2.4,2.4,0,0,0,1.22,3,2.26,2.26,0,0,0,2.87-.55,2.42,2.42,0,1,1-4.09-2.45Z" fill="#3e3e4a" opacity="0.4"></path><path d="M95.21,165.31l-.88,5.31a4.73,4.73,0,0,0,2.16.4c1.65.06,1.56-.5,1.56-.5l-.87-5.21Z" fill="#3e3e4a"></path><ellipse cx="96.19" cy="165.31" rx="0.98" ry="0.49" fill="#55555f"></ellipse><ellipse cx="96.19" cy="170.65" rx="1.87" ry="0.94" fill="#3e3e4a"></ellipse></g></g></svg>