<svg xmlns="http://www.w3.org/2000/svg" width="44" height="44" viewBox="0 0 44 44"><path d="M24.75 24.75C24.75 26.2694 23.5194 27.5 22 27.5C20.4806 27.5 19.25 26.2694 19.25 24.75C19.25 23.2306 20.4806 22 22 22C23.5194 22 24.75 23.2306 24.75 24.75Z"/><path d="M35.75 14.6661H28.4161L26.5822 11H17.4161L15.5822 14.6661H8.25C6.69108 14.6661 5.5 15.8572 5.5 17.4161V32.0822C5.5 33.5482 6.69108 34.8322 8.25 34.8322H35.75C37.3089 34.8322 38.5 33.5482 38.5 32.0822V17.4161C38.5 15.8589 37.3089 14.6661 35.75 14.6661ZM22 31.1661C18.425 31.1661 15.5839 28.325 15.5839 24.75C15.5839 21.175 18.425 18.3339 22 18.3339C25.575 18.3339 28.4161 21.175 28.4161 24.75C28.4161 28.325 25.575 31.1661 22 31.1661Z"/></svg>