<svg width="31" height="31" viewBox="0 0 31 31" xmlns="http://www.w3.org/2000/svg">
<path d="M15.4987 6.51001C13.2839 6.51001 11.4687 8.32521 11.4687 10.54C11.4687 12.7548 13.2839 14.57 15.4987 14.57C17.7135 14.57 19.5287 12.7548 19.5287 10.54C19.5287 8.32521 17.7135 6.51001 15.4987 6.51001ZM15.4987 8.37001C16.7084 8.37001 17.6687 9.3303 17.6687 10.54C17.6687 11.7497 16.7084 12.71 15.4987 12.71C14.289 12.71 13.3287 11.7497 13.3287 10.54C13.3287 9.3303 14.289 8.37001 15.4987 8.37001ZM7.43872 8.99001C5.56659 8.99001 4.02872 10.5279 4.02872 12.4C4.02872 14.2721 5.56659 15.81 7.43872 15.81C9.31084 15.81 10.8487 14.2721 10.8487 12.4C10.8487 10.5279 9.31084 8.99001 7.43872 8.99001ZM23.5575 8.99001C21.6854 8.99001 20.1475 10.5279 20.1475 12.4C20.1475 14.2721 21.6854 15.81 23.5575 15.81C25.4296 15.81 26.9675 14.2721 26.9675 12.4C26.9675 10.5279 25.4296 8.99001 23.5575 8.99001ZM7.43872 10.85C8.30575 10.85 8.98872 11.533 8.98872 12.4C8.98872 13.267 8.30575 13.95 7.43872 13.95C6.57168 13.95 5.88872 13.267 5.88872 12.4C5.88872 11.533 6.57168 10.85 7.43872 10.85ZM23.5575 10.85C24.4245 10.85 25.1075 11.533 25.1075 12.4C25.1075 13.267 24.4245 13.95 23.5575 13.95C22.6904 13.95 22.0075 13.267 22.0075 12.4C22.0075 11.533 22.6904 10.85 23.5575 10.85ZM15.4975 15.19C13.6326 15.19 11.9337 16.1031 10.6342 17.5538C10.5506 17.647 10.4719 17.7463 10.392 17.8444C9.60247 17.3515 8.70638 17.05 7.75701 17.05C4.71151 17.05 2.32488 19.7504 1.56662 23.3663H1.56904C1.51091 23.6411 1.57873 23.9269 1.75552 24.1449C1.93232 24.3629 2.19873 24.49 2.47965 24.49H28.5172C28.7981 24.49 29.0645 24.3629 29.2413 24.1449C29.4181 23.9269 29.4871 23.6411 29.4278 23.3663C28.6709 19.7504 26.2828 17.05 23.2374 17.05C22.288 17.05 21.3846 17.3418 20.5927 17.8347C20.5152 17.7414 20.4401 17.6434 20.3602 17.5537C19.0633 16.103 17.3631 15.19 15.4969 15.19L15.4975 15.19ZM15.4975 17.05C16.7629 17.05 17.9484 17.6458 18.9754 18.7938C19.8206 19.7395 20.5181 21.0606 20.971 22.63H10.0156C10.4697 21.0631 11.1757 19.7383 12.0209 18.7938C13.049 17.6458 14.2333 17.05 15.4988 17.05H15.4975ZM7.75709 18.91C8.30926 18.91 8.84209 19.0662 9.35551 19.375C8.81543 20.3413 8.38434 21.4397 8.08643 22.63H3.75604C4.56616 20.3014 6.09558 18.91 7.7569 18.91H7.75709ZM23.2366 18.91C24.898 18.91 26.4275 20.3014 27.2375 22.63H22.9071C22.6092 21.4397 22.1781 20.3413 21.638 19.375C22.149 19.0674 22.6867 18.91 23.2364 18.91H23.2366Z"/>
</svg>
