<svg xmlns="http://www.w3.org/2000/svg" width="30" height="28" viewBox="0 0 30 28"><path d="M18.6653 10.9436C19.9711 11.5623 21.0777 12.5001 21.8681 13.6596L21.8682 13.6597C22.7028 14.8867 23.148 16.3111 23.15 17.7679V17.7681V19.9072C23.15 21.1546 22.0728 22.15 20.7639 22.15H9.23609C7.92723 22.15 6.85 21.1546 6.85 19.9072V17.7681V17.7679C6.85198 16.3111 7.29717 14.8866 8.13184 13.6597L8.13192 13.6596C8.92232 12.5 10.029 11.5621 11.3349 10.9435C10.2501 10.0465 9.57783 8.7826 9.47281 7.42072L9.47281 7.42071C9.36161 5.97767 9.89685 4.55828 10.9465 3.50292L18.6653 10.9436ZM18.6653 10.9436C19.7501 10.0467 20.4224 8.78271 20.5274 7.42072C20.6386 5.97773 20.1034 4.55819 19.0537 3.50288C18.0044 2.44704 16.536 1.85 15.0001 1.85C13.4642 1.85 11.996 2.44704 10.9466 3.50288L18.6653 10.9436ZM13.7517 9.85088L13.7516 9.85083C12.5326 9.37917 11.7463 8.27012 11.7463 7.04779C11.7463 5.38039 13.1933 4.01231 14.9999 4.01231H15.0363C16.3438 4.02578 17.5107 4.76793 18.0074 5.88936C18.5077 7.01997 18.2328 8.32197 17.3044 9.19086C16.3743 10.0614 14.971 10.3239 13.7517 9.85088ZM20.8624 19.9051V19.9069C20.8624 19.9255 20.8547 19.9454 20.8371 19.9618C20.8193 19.9785 20.7932 19.9895 20.764 19.9895H9.23617C9.17208 19.9895 9.13771 19.9433 9.13771 19.9069V17.7678C9.13771 15.8116 10.2525 13.9985 12.0715 13.0166L12.0715 13.0166C13.8914 12.0333 16.134 12.0333 17.954 13.0166L17.954 13.0166C19.7727 13.9983 20.8874 15.8111 20.8878 17.7669C20.8878 17.7672 20.8878 17.7675 20.8878 17.7678L20.8624 19.9051Z"/></svg>