<svg xmlns="http://www.w3.org/2000/svg" id="a8904fed-7223-4ff2-9071-b444910320a0" width="1137" height="518.057" data-name="Layer 1" viewBox="0 0 1137 518.057"><title>best place</title><path fill="#3f3d56" d="M175.76416,701.583l-1.95117-.43946c21.75586-96.751,76.43017-184.60937,153.95117-247.3916A444.114,444.114,0,0,1,1039.919,699.96289l-1.94922.44336C991.916,498.19727,814.69531,356.97168,607,356.97168,402.02637,356.97168,220.66553,501.90137,175.76416,701.583Z" transform="translate(-31.5 -190.97168)"/><circle cx="899.633" cy="219.903" r="54.315" fill="#ff6584"/><rect width="2" height="79" x="877" y="437.057" fill="#3f3d56"/><path fill="#fc766a" d="M928.95773,638.096c.12732,27.62433-19.30786,50.10833-19.30786,50.10833s-19.6416-22.3039-19.76892-49.92823,19.30786-50.10833,19.30786-50.10833S928.83041,610.47163,928.95773,638.096Z" transform="translate(-31.5 -190.97168)"/><path d="M928.95773,638.096c.12732,27.62433-19.30786,50.10833-19.30786,50.10833s-19.6416-22.3039-19.76892-49.92823,19.30786-50.10833,19.30786-50.10833S928.83041,610.47163,928.95773,638.096Z" opacity=".1" transform="translate(-31.5 -190.97168)"/><circle cx="501.022" cy="248.742" r="31.248" fill="#fc766a" opacity=".4"/><circle cx="443.19" cy="263.666" r="21.92" fill="#fc766a" opacity=".4"/><circle cx="208.19" cy="326.666" r="21.92" fill="#fc766a" opacity=".4"/><circle cx="856.312" cy="246.171" r="31.248" fill="#fc766a" opacity=".4"/><path fill="#3f3d56" d="M88.13058,698.24412c1.694,6.26184,7.4961,10.14,7.4961,10.14s3.05572-6.27434,1.36177-12.53618-7.49609-10.14-7.49609-10.14S86.43664,691.98227,88.13058,698.24412Z" transform="translate(-31.5 -190.97168)"/><path fill="#fc766a" d="M90.61972,696.89838c4.64821,4.52485,5.216,11.4806,5.216,11.4806s-6.9685-.38049-11.61672-4.90534-5.216-11.48059-5.216-11.48059S85.9715,692.37353,90.61972,696.89838Z" transform="translate(-31.5 -190.97168)"/><path fill="#3f3d56" d="M700.13058,698.24412c1.69395,6.26184,7.4961,10.14,7.4961,10.14s3.05572-6.27434,1.36177-12.53618-7.49609-10.14-7.49609-10.14S698.43664,691.98227,700.13058,698.24412Z" transform="translate(-31.5 -190.97168)"/><path fill="#fc766a" d="M702.61972,696.89838c4.64821,4.52485,5.216,11.4806,5.216,11.4806s-6.9685-.38049-11.61672-4.90534-5.216-11.48059-5.216-11.48059S697.9715,692.37353,702.61972,696.89838Z" transform="translate(-31.5 -190.97168)"/><polygon fill="#3f3d56" points="68.137 460.203 64 453.308 102.614 420.21 201.908 420.21 201.908 429.863 166.052 468.478 124.679 476.752 68.137 460.203"/><polygon fill="#ccc" points="219 439.633 219 418.056 206 418.056 206 424.86 201.908 420.21 168.81 453.308 163.293 458.824 156.398 486.406 168.81 516.745 232.247 516.745 232.247 454.687 219 439.633"/><rect width="104.81" height="63.438" x="64" y="453.308" fill="#f2f2f2"/><rect width="22.065" height="19.307" x="132.264" y="473.304" fill="#3f3d56"/><rect width="19.307" height="44.13" x="103.993" y="472.615" fill="#ccc"/><polygon fill="#3f3d56" points="81.928 479.51 81.928 472.615 73.654 472.615 73.654 479.51 81.238 479.51 81.928 479.51"/><polygon fill="#3f3d56" points="81.238 485.026 73.654 485.026 73.654 491.922 81.928 491.922 81.928 485.026 81.238 485.026"/><rect width="8.274" height="6.895" x="87.444" y="472.615" fill="#3f3d56"/><rect width="8.274" height="6.895" x="87.444" y="485.026" fill="#3f3d56"/><polygon fill="#3f3d56" points="198.46 480.2 198.46 473.304 190.185 473.304 190.185 480.2 197.77 480.2 198.46 480.2"/><polygon fill="#3f3d56" points="197.77 485.716 190.185 485.716 190.185 492.611 198.46 492.611 198.46 485.716 197.77 485.716"/><rect width="8.274" height="6.895" x="203.976" y="473.304" fill="#3f3d56"/><rect width="8.274" height="6.895" x="203.976" y="485.716" fill="#3f3d56"/><polygon fill="#3f3d56" points="467.137 460.203 463 453.308 501.614 420.21 600.908 420.21 600.908 429.863 565.052 468.478 523.679 476.752 467.137 460.203"/><polygon fill="#ccc" points="618 439.633 618 418.056 605 418.056 605 424.86 600.908 420.21 567.81 453.308 562.293 458.824 555.398 486.406 567.81 516.745 631.247 516.745 631.247 454.687 618 439.633"/><rect width="104.81" height="63.438" x="463" y="453.308" fill="#f2f2f2"/><rect width="22.065" height="19.307" x="531.264" y="473.304" fill="#3f3d56"/><rect width="19.307" height="44.13" x="502.993" y="472.615" fill="#ccc"/><polygon fill="#3f3d56" points="480.928 479.51 480.928 472.615 472.654 472.615 472.654 479.51 480.238 479.51 480.928 479.51"/><polygon fill="#3f3d56" points="480.238 485.026 472.654 485.026 472.654 491.922 480.928 491.922 480.928 485.026 480.238 485.026"/><rect width="8.274" height="6.895" x="486.444" y="472.615" fill="#3f3d56"/><rect width="8.274" height="6.895" x="486.444" y="485.026" fill="#3f3d56"/><polygon fill="#3f3d56" points="597.46 480.2 597.46 473.304 589.185 473.304 589.185 480.2 596.77 480.2 597.46 480.2"/><polygon fill="#3f3d56" points="596.77 485.716 589.185 485.716 589.185 492.611 597.46 492.611 597.46 485.716 596.77 485.716"/><rect width="8.274" height="6.895" x="602.976" y="473.304" fill="#3f3d56"/><rect width="8.274" height="6.895" x="602.976" y="485.716" fill="#3f3d56"/><polygon fill="#3f3d56" points="280.515 344.361 273.62 338.844 312.234 304.367 410.148 304.367 410.148 334.707 346.711 377.459 280.515 344.361"/><polygon fill="#ccc" points="428 323.707 428 305.056 415 305.056 415 309.624 410.148 304.367 378.429 338.844 366.018 347.119 346.773 487.722 375.796 516.745 443.246 516.745 443.246 340.223 428 323.707"/><rect width="104.81" height="177.901" x="273.62" y="338.844" fill="#f2f2f2"/><rect width="19.307" height="43.441" x="314.302" y="473.304" fill="#ccc"/><polygon fill="#3f3d56" points="293.616 485.716 293.616 478.821 285.342 478.821 285.342 485.716 292.927 485.716 293.616 485.716"/><polygon fill="#3f3d56" points="292.927 491.232 285.342 491.232 285.342 498.128 293.616 498.128 293.616 491.232 292.927 491.232"/><rect width="8.274" height="6.895" x="299.132" y="478.821" fill="#3f3d56"/><rect width="8.274" height="6.895" x="299.132" y="491.232" fill="#3f3d56"/><polygon fill="#3f3d56" points="350.158 485.716 350.158 478.821 341.884 478.821 341.884 485.716 349.469 485.716 350.158 485.716"/><polygon fill="#3f3d56" points="349.469 491.232 341.884 491.232 341.884 498.128 350.158 498.128 350.158 491.232 349.469 491.232"/><rect width="8.274" height="6.895" x="355.675" y="478.821" fill="#3f3d56"/><rect width="8.274" height="6.895" x="355.675" y="491.232" fill="#3f3d56"/><polygon fill="#3f3d56" points="408.079 347.808 408.079 340.913 399.805 340.913 399.805 347.808 407.39 347.808 408.079 347.808"/><polygon fill="#3f3d56" points="407.39 353.325 399.805 353.325 399.805 360.22 408.079 360.22 408.079 353.325 407.39 353.325"/><rect width="8.274" height="6.895" x="413.596" y="340.913" fill="#3f3d56"/><rect width="8.274" height="6.895" x="413.596" y="353.325" fill="#3f3d56"/><polygon fill="#3f3d56" points="408.079 386.423 408.079 379.527 399.805 379.527 399.805 386.423 407.39 386.423 408.079 386.423"/><polygon fill="#3f3d56" points="407.39 391.939 399.805 391.939 399.805 398.834 408.079 398.834 408.079 391.939 407.39 391.939"/><rect width="8.274" height="6.895" x="413.596" y="379.527" fill="#3f3d56"/><rect width="8.274" height="6.895" x="413.596" y="391.939" fill="#3f3d56"/><polygon fill="#3f3d56" points="408.079 425.037 408.079 418.141 399.805 418.141 399.805 425.037 407.39 425.037 408.079 425.037"/><polygon fill="#3f3d56" points="407.39 430.553 399.805 430.553 399.805 437.448 408.079 437.448 408.079 430.553 407.39 430.553"/><rect width="8.274" height="6.895" x="413.596" y="418.141" fill="#3f3d56"/><rect width="8.274" height="6.895" x="413.596" y="430.553" fill="#3f3d56"/><polygon fill="#3f3d56" points="408.079 463.651 408.079 456.755 399.805 456.755 399.805 463.651 407.39 463.651 408.079 463.651"/><polygon fill="#3f3d56" points="407.39 469.167 399.805 469.167 399.805 476.062 408.079 476.062 408.079 469.167 407.39 469.167"/><rect width="8.274" height="6.895" x="413.596" y="456.755" fill="#3f3d56"/><rect width="8.274" height="6.895" x="413.596" y="469.167" fill="#3f3d56"/><rect width="79.986" height="16.549" x="285.342" y="347.808" fill="#3f3d56"/><rect width="79.986" height="16.549" x="285.342" y="380.906" fill="#3f3d56"/><rect width="79.986" height="16.549" x="285.342" y="414.004" fill="#3f3d56"/><rect width="79.986" height="16.549" x="285.342" y="447.102" fill="#3f3d56"/><polygon fill="#3f3d56" points="683.515 344.361 676.62 338.844 715.234 304.367 813.148 304.367 813.148 334.707 749.711 377.459 683.515 344.361"/><polygon fill="#ccc" points="831 323.707 831 305.056 818 305.056 818 309.624 813.148 304.367 781.429 338.844 769.018 347.119 749.773 487.722 778.796 516.745 846.246 516.745 846.246 340.223 831 323.707"/><rect width="104.81" height="177.901" x="676.62" y="338.844" fill="#f2f2f2"/><rect width="19.307" height="43.441" x="717.302" y="473.304" fill="#ccc"/><polygon fill="#3f3d56" points="696.616 485.716 696.616 478.821 688.342 478.821 688.342 485.716 695.927 485.716 696.616 485.716"/><polygon fill="#3f3d56" points="695.927 491.232 688.342 491.232 688.342 498.128 696.616 498.128 696.616 491.232 695.927 491.232"/><rect width="8.274" height="6.895" x="702.132" y="478.821" fill="#3f3d56"/><rect width="8.274" height="6.895" x="702.132" y="491.232" fill="#3f3d56"/><polygon fill="#3f3d56" points="753.158 485.716 753.158 478.821 744.884 478.821 744.884 485.716 752.469 485.716 753.158 485.716"/><polygon fill="#3f3d56" points="752.469 491.232 744.884 491.232 744.884 498.128 753.158 498.128 753.158 491.232 752.469 491.232"/><rect width="8.274" height="6.895" x="758.675" y="478.821" fill="#3f3d56"/><rect width="8.274" height="6.895" x="758.675" y="491.232" fill="#3f3d56"/><polygon fill="#3f3d56" points="811.079 347.808 811.079 340.913 802.805 340.913 802.805 347.808 810.39 347.808 811.079 347.808"/><polygon fill="#3f3d56" points="810.39 353.325 802.805 353.325 802.805 360.22 811.079 360.22 811.079 353.325 810.39 353.325"/><rect width="8.274" height="6.895" x="816.596" y="340.913" fill="#3f3d56"/><rect width="8.274" height="6.895" x="816.596" y="353.325" fill="#3f3d56"/><polygon fill="#3f3d56" points="811.079 386.423 811.079 379.527 802.805 379.527 802.805 386.423 810.39 386.423 811.079 386.423"/><polygon fill="#3f3d56" points="810.39 391.939 802.805 391.939 802.805 398.834 811.079 398.834 811.079 391.939 810.39 391.939"/><rect width="8.274" height="6.895" x="816.596" y="379.527" fill="#3f3d56"/><rect width="8.274" height="6.895" x="816.596" y="391.939" fill="#3f3d56"/><polygon fill="#3f3d56" points="811.079 425.037 811.079 418.141 802.805 418.141 802.805 425.037 810.39 425.037 811.079 425.037"/><polygon fill="#3f3d56" points="810.39 430.553 802.805 430.553 802.805 437.448 811.079 437.448 811.079 430.553 810.39 430.553"/><rect width="8.274" height="6.895" x="816.596" y="418.141" fill="#3f3d56"/><rect width="8.274" height="6.895" x="816.596" y="430.553" fill="#3f3d56"/><polygon fill="#3f3d56" points="811.079 463.651 811.079 456.755 802.805 456.755 802.805 463.651 810.39 463.651 811.079 463.651"/><polygon fill="#3f3d56" points="810.39 469.167 802.805 469.167 802.805 476.062 811.079 476.062 811.079 469.167 810.39 469.167"/><rect width="8.274" height="6.895" x="816.596" y="456.755" fill="#3f3d56"/><rect width="8.274" height="6.895" x="816.596" y="469.167" fill="#3f3d56"/><rect width="79.986" height="16.549" x="688.342" y="347.808" fill="#3f3d56"/><rect width="79.986" height="16.549" x="688.342" y="380.906" fill="#3f3d56"/><rect width="79.986" height="16.549" x="688.342" y="414.004" fill="#3f3d56"/><rect width="79.986" height="16.549" x="688.342" y="447.102" fill="#3f3d56"/><polygon fill="#3f3d56" points="904.515 344.361 897.62 338.844 936.234 304.367 1034.148 304.367 1034.148 334.707 970.711 377.459 904.515 344.361"/><polygon fill="#ccc" points="1052 323.707 1052 305.056 1039 305.056 1039 309.624 1034.148 304.367 1002.429 338.844 990.018 347.119 970.773 487.722 999.796 516.745 1067.246 516.745 1067.246 340.223 1052 323.707"/><rect width="104.81" height="177.901" x="897.62" y="338.844" fill="#f2f2f2"/><rect width="19.307" height="43.441" x="938.302" y="473.304" fill="#ccc"/><polygon fill="#3f3d56" points="917.616 485.716 917.616 478.821 909.342 478.821 909.342 485.716 916.927 485.716 917.616 485.716"/><polygon fill="#3f3d56" points="916.927 491.232 909.342 491.232 909.342 498.128 917.616 498.128 917.616 491.232 916.927 491.232"/><rect width="8.274" height="6.895" x="923.132" y="478.821" fill="#3f3d56"/><rect width="8.274" height="6.895" x="923.132" y="491.232" fill="#3f3d56"/><polygon fill="#3f3d56" points="974.158 485.716 974.158 478.821 965.884 478.821 965.884 485.716 973.469 485.716 974.158 485.716"/><polygon fill="#3f3d56" points="973.469 491.232 965.884 491.232 965.884 498.128 974.158 498.128 974.158 491.232 973.469 491.232"/><rect width="8.274" height="6.895" x="979.675" y="478.821" fill="#3f3d56"/><rect width="8.274" height="6.895" x="979.675" y="491.232" fill="#3f3d56"/><polygon fill="#3f3d56" points="1032.079 347.808 1032.079 340.913 1023.805 340.913 1023.805 347.808 1031.39 347.808 1032.079 347.808"/><polygon fill="#3f3d56" points="1031.39 353.325 1023.805 353.325 1023.805 360.22 1032.079 360.22 1032.079 353.325 1031.39 353.325"/><rect width="8.274" height="6.895" x="1037.596" y="340.913" fill="#3f3d56"/><rect width="8.274" height="6.895" x="1037.596" y="353.325" fill="#3f3d56"/><polygon fill="#3f3d56" points="1032.079 386.423 1032.079 379.527 1023.805 379.527 1023.805 386.423 1031.39 386.423 1032.079 386.423"/><polygon fill="#3f3d56" points="1031.39 391.939 1023.805 391.939 1023.805 398.834 1032.079 398.834 1032.079 391.939 1031.39 391.939"/><rect width="8.274" height="6.895" x="1037.596" y="379.527" fill="#3f3d56"/><rect width="8.274" height="6.895" x="1037.596" y="391.939" fill="#3f3d56"/><polygon fill="#3f3d56" points="1032.079 425.037 1032.079 418.141 1023.805 418.141 1023.805 425.037 1031.39 425.037 1032.079 425.037"/><polygon fill="#3f3d56" points="1031.39 430.553 1023.805 430.553 1023.805 437.448 1032.079 437.448 1032.079 430.553 1031.39 430.553"/><rect width="8.274" height="6.895" x="1037.596" y="418.141" fill="#3f3d56"/><rect width="8.274" height="6.895" x="1037.596" y="430.553" fill="#3f3d56"/><polygon fill="#3f3d56" points="1032.079 463.651 1032.079 456.755 1023.805 456.755 1023.805 463.651 1031.39 463.651 1032.079 463.651"/><polygon fill="#3f3d56" points="1031.39 469.167 1023.805 469.167 1023.805 476.062 1032.079 476.062 1032.079 469.167 1031.39 469.167"/><rect width="8.274" height="6.895" x="1037.596" y="456.755" fill="#3f3d56"/><rect width="8.274" height="6.895" x="1037.596" y="469.167" fill="#3f3d56"/><rect width="79.986" height="16.549" x="909.342" y="347.808" fill="#3f3d56"/><rect width="79.986" height="16.549" x="909.342" y="380.906" fill="#3f3d56"/><rect width="79.986" height="16.549" x="909.342" y="414.004" fill="#3f3d56"/><rect width="79.986" height="16.549" x="909.342" y="447.102" fill="#3f3d56"/><rect width="1137" height="2" y="516.057" fill="#3f3d56"/><rect width="2" height="79" x="252" y="437.057" fill="#3f3d56"/><path fill="#fc766a" d="M303.95773,638.096c.12732,27.62433-19.30786,50.10833-19.30786,50.10833s-19.6416-22.3039-19.76892-49.92823,19.30786-50.10833,19.30786-50.10833S303.83041,610.47163,303.95773,638.096Z" transform="translate(-31.5 -190.97168)"/><rect width="2" height="79" x="452" y="437.057" fill="#3f3d56"/><path fill="#fc766a" d="M503.95773,638.096c.12732,27.62433-19.30786,50.10833-19.30786,50.10833s-19.6416-22.3039-19.76892-49.92823,19.30786-50.10833,19.30786-50.10833S503.83041,610.47163,503.95773,638.096Z" transform="translate(-31.5 -190.97168)"/><rect width="2" height="79" x="851" y="437.057" fill="#3f3d56"/><path fill="#fc766a" d="M902.95773,638.096c.12732,27.62433-19.30786,50.10833-19.30786,50.10833s-19.6416-22.3039-19.76892-49.92823,19.30786-50.10833,19.30786-50.10833S902.83041,610.47163,902.95773,638.096Z" transform="translate(-31.5 -190.97168)"/><ellipse cx="587.5" cy="163.5" fill="#fc766a" rx="38" ry="8.55"/><path fill="#fc766a" d="M662,234.97168c0,24.30053-44,93-44,93s-44-68.69947-44-93a44,44,0,0,1,88,0Z" transform="translate(-31.5 -190.97168)"/><circle cx="586.5" cy="44" r="25" fill="#f2f2f2"/></svg>