<?xml version="1.0" encoding="iso-8859-1"?>
<!-- Generator: Adobe Illustrator 18.0.0, SVG Export Plug-In . SVG Version: 6.00 Build 0)  -->
<!DOCTYPE svg PUBLIC "-//W3C//DTD SVG 1.1//EN" "http://www.w3.org/Graphics/SVG/1.1/DTD/svg11.dtd">
<svg version="1.1" id="Capa_1" xmlns="http://www.w3.org/2000/svg" xmlns:xlink="http://www.w3.org/1999/xlink" x="0px" y="0px"
	 viewBox="0 0 433 433" style="enable-background:new 0 0 433 433;" xml:space="preserve">
<path d="M374.2,326.473L223.292,4.318C222.058,1.683,219.411,0,216.5,0s-5.558,1.683-6.792,4.318L58.8,326.473
	c-1.088,2.323-0.913,5.041,0.463,7.206c1.377,2.165,3.764,3.476,6.329,3.476H209V425.5c0,4.142,3.357,7.5,7.5,7.5s7.5-3.358,7.5-7.5
	v-88.346h143.407c2.565,0,4.952-1.311,6.329-3.476C375.113,331.514,375.288,328.796,374.2,326.473z M224,322.154V243.37
	l24.69,33.524c2.457,3.335,7.152,4.047,10.486,1.591c3.336-2.457,4.048-7.151,1.592-10.487L224,218.075v-52.123l24.57,35.357
	c2.364,3.401,7.037,4.243,10.439,1.878c3.401-2.364,4.242-7.037,1.879-10.438L224,139.667v-19.71c0-4.142-3.357-7.5-7.5-7.5
	s-7.5,3.358-7.5,7.5v19.71l-36.89,53.082c-2.363,3.401-1.522,8.075,1.879,10.439c1.305,0.907,2.797,1.342,4.273,1.342
	c2.374,0,4.709-1.124,6.166-3.22L209,165.952v52.123l-36.77,49.923c-2.456,3.335-1.744,8.03,1.591,10.487
	c1.34,0.986,2.897,1.461,4.442,1.461c2.303,0,4.574-1.057,6.045-3.053L209,243.369v78.785H77.387L216.5,25.181l139.112,296.974H224z
	"/>
<g>
</g>
<g>
</g>
<g>
</g>
<g>
</g>
<g>
</g>
<g>
</g>
<g>
</g>
<g>
</g>
<g>
</g>
<g>
</g>
<g>
</g>
<g>
</g>
<g>
</g>
<g>
</g>
<g>
</g>
</svg>
