<?xml version="1.0" encoding="iso-8859-1"?>
<!-- Generator: Adobe Illustrator 17.1.0, SVG Export Plug-In . SVG Version: 6.00 Build 0)  -->
<!DOCTYPE svg PUBLIC "-//W3C//DTD SVG 1.1//EN" "http://www.w3.org/Graphics/SVG/1.1/DTD/svg11.dtd">
<svg version="1.1" id="Capa_1" xmlns="http://www.w3.org/2000/svg" xmlns:xlink="http://www.w3.org/1999/xlink" x="0px" y="0px"
	 viewBox="0 0 470 470" style="enable-background:new 0 0 470 470;" xml:space="preserve">
<g>
	<path d="M350.851,146.286c2.093-8.917,3.153-18.077,3.153-27.282C354.003,53.385,300.619,0,235,0S115.997,53.385,115.997,119.004
		c0,9.206,1.06,18.365,3.153,27.282c-21.612,26.559-33.469,59.853-33.469,94.203c0,34.339,11.945,67.867,33.634,94.409
		c21.383,26.167,51.252,44.475,84.106,51.552c4.048,0.873,8.039-1.703,8.911-5.753c0.872-4.049-1.704-8.039-5.753-8.911
		c-61.362-13.217-105.898-68.435-105.898-131.298c0-32.077,11.495-63.132,32.366-87.443c1.617-1.884,2.198-4.445,1.55-6.842
		c-2.389-8.84-3.6-17.992-3.6-27.2C130.997,61.656,177.652,15,235,15s104.003,46.656,104.003,104.004c0,9.208-1.211,18.36-3.6,27.2
		c-0.648,2.397-0.067,4.958,1.55,6.842c20.872,24.311,32.366,55.366,32.366,87.443c0,62.862-44.537,118.081-105.898,131.298
		c-4.049,0.872-6.625,4.862-5.753,8.911c0.758,3.517,3.867,5.922,7.325,5.922c0.523,0,1.054-0.055,1.586-0.17
		c32.854-7.076,62.723-25.385,84.106-51.552c21.689-26.542,33.634-60.071,33.634-94.409
		C384.319,206.139,372.462,172.845,350.851,146.286z"/>
	<path d="M297.007,266.39c2.929-2.929,2.929-7.678,0-10.606c-2.929-2.929-7.678-2.929-10.606,0L242.5,299.684v-43.867
		c0-0.026,0-126.517,0-126.517c0-4.142-3.358-7.5-7.5-7.5s-7.5,3.358-7.5,7.5v108.397l-43.9-43.9c-2.929-2.929-7.678-2.929-10.606,0
		c-2.929,2.929-2.929,7.677,0,10.606l54.507,54.507V462.5c0,4.142,3.358,7.5,7.5,7.5s7.5-3.358,7.5-7.5V320.897L297.007,266.39z"/>
	<path d="M162.5,290.5c0,4.411,3.589,8,8,8s8-3.589,8-8s-3.589-8-8-8S162.5,286.089,162.5,290.5z"/>
	<path d="M299.704,104c0-4.411-3.589-8-8-8s-8,3.589-8,8s3.589,8,8,8S299.704,108.411,299.704,104z"/>
	<path d="M281,74.5c0-4.411-3.589-8-8-8s-8,3.589-8,8s3.589,8,8,8S281,78.911,281,74.5z"/>
</g>
<g>
</g>
<g>
</g>
<g>
</g>
<g>
</g>
<g>
</g>
<g>
</g>
<g>
</g>
<g>
</g>
<g>
</g>
<g>
</g>
<g>
</g>
<g>
</g>
<g>
</g>
<g>
</g>
<g>
</g>
</svg>
