<svg xmlns="http://www.w3.org/2000/svg" width="225" height="225" fill="none" viewBox="0 0 225 225"><circle cx="112.5" cy="112.5" r="112.222" fill="url(#paint0_radial)" stroke="#0D88FE" stroke-width=".556" opacity=".1"/><circle cx="112.5" cy="112.5" r="112.222" stroke="#0D88FE" stroke-width=".556" opacity=".1"/><circle cx="112.5" cy="112.5" r="40.833" fill="#0D88FE"/><circle cx="112.5" cy="112.5" r="28.056" fill="url(#paint1_linear)"/><g filter="url(#filter0_f)"><path fill="url(#paint2_linear)" d="M126.111 118.612C126.111 126.129 120.017 132.223 112.5 132.223C104.983 132.223 98.8889 126.129 98.8889 118.612C98.8889 111.094 104.983 105 112.5 105C120.017 105 126.111 111.094 126.111 118.612Z"/></g><circle cx="112.5" cy="112.5" r="16.389" fill="url(#paint3_linear)"/><g filter="url(#filter1_f)"><circle cx="112.5" cy="130.278" r="31.389" fill="#0D88FE" fill-opacity=".4"/></g><defs><filter id="filter0_f" width="43.889" height="43.889" x="90.556" y="96.667" color-interpolation-filters="sRGB" filterUnits="userSpaceOnUse"><feFlood flood-opacity="0" result="BackgroundImageFix"/><feBlend in="SourceGraphic" in2="BackgroundImageFix" mode="normal" result="shape"/><feGaussianBlur result="effect1_foregroundBlur" stdDeviation="4.167"/></filter><filter id="filter1_f" width="96.111" height="96.111" x="64.444" y="82.222" color-interpolation-filters="sRGB" filterUnits="userSpaceOnUse"><feFlood flood-opacity="0" result="BackgroundImageFix"/><feBlend in="SourceGraphic" in2="BackgroundImageFix" mode="normal" result="shape"/><feGaussianBlur result="effect1_foregroundBlur" stdDeviation="8.333"/></filter><radialGradient id="paint0_radial" cx="0" cy="0" r="1" gradientTransform="translate(112.778 112.778) rotate(1.90281) scale(167.314)" gradientUnits="userSpaceOnUse"><stop stop-color="#0D88FE" stop-opacity="0"/><stop offset="1" stop-color="#0D88FE"/></radialGradient><linearGradient id="paint1_linear" x1="112.5" x2="112.5" y1="84.444" y2="140.555" gradientUnits="userSpaceOnUse"><stop stop-color="#1760A6"/><stop offset="1" stop-color="#51AAFF"/></linearGradient><linearGradient id="paint2_linear" x1="112.5" x2="112.5" y1="105" y2="132.223" gradientUnits="userSpaceOnUse"><stop stop-color="#1763AD"/><stop offset="1" stop-color="#073662"/></linearGradient><linearGradient id="paint3_linear" x1="112.5" x2="112.5" y1="96.111" y2="128.889" gradientUnits="userSpaceOnUse"><stop stop-color="#02FFE1"/><stop offset="1" stop-color="#00CCC0"/></linearGradient></defs></svg>